<svg width="32" height="14" viewBox="0 0 32 14" fill="none" xmlns="http://www.w3.org/2000/svg">
<path fill-rule="evenodd" clip-rule="evenodd" d="M5.84705 1.80642C5.47201 2.2793 4.87194 2.65228 4.27187 2.599C4.19686 1.9596 4.49065 1.28025 4.83443 0.860648C5.20948 0.374444 5.8658 0.0281062 6.39711 0.00146484C6.45962 0.667498 6.21584 1.32021 5.84705 1.80642ZM6.3908 2.72551C5.86215 2.69309 5.37978 2.89491 4.99016 3.05793C4.73943 3.16284 4.52711 3.25167 4.36557 3.25167C4.1843 3.25167 3.96321 3.15808 3.71498 3.05301C3.38971 2.91532 3.01784 2.75791 2.62788 2.76547C1.73403 2.77879 0.902686 3.31827 0.446384 4.17746C-0.491221 5.89582 0.202607 8.44007 1.10896 9.83874C1.55276 10.5314 2.08407 11.2907 2.78415 11.264C3.09214 11.2517 3.31369 11.1515 3.54298 11.0478C3.80695 10.9285 4.08117 10.8045 4.50934 10.8045C4.92267 10.8045 5.1849 10.9252 5.43662 11.0412C5.67597 11.1514 5.90582 11.2572 6.24704 11.2507C6.97212 11.2374 7.42842 10.5581 7.87222 9.86538C8.35115 9.12195 8.56162 8.3964 8.59356 8.28629L8.5973 8.27356C8.59653 8.27274 8.59062 8.26986 8.58018 8.26477C8.42008 8.18667 7.19638 7.58975 7.18464 5.98907C7.17286 4.64553 8.15525 3.96481 8.30989 3.85765C8.31931 3.85113 8.32565 3.84673 8.32852 3.84444C7.70345 2.85871 6.72834 2.75215 6.3908 2.72551ZM11.4102 11.1775V0.79402H15.0668C16.9545 0.79402 18.2734 2.17937 18.2734 4.20411C18.2734 6.22885 16.9295 7.62752 15.0168 7.62752H12.9228V11.1775H11.4102ZM12.9227 2.1528H14.6666C15.9793 2.1528 16.7294 2.89876 16.7294 4.21084C16.7294 5.52293 15.9793 6.27554 14.6604 6.27554H12.9227V2.1528ZM23.2678 9.93197C22.8678 10.7445 21.9864 11.2574 21.0363 11.2574C19.6299 11.2574 18.6486 10.3649 18.6486 9.0195C18.6486 7.68744 19.5987 6.9215 21.3551 6.80827L23.2428 6.68839V6.1156C23.2428 5.26974 22.724 4.81017 21.7989 4.81017C21.0363 4.81017 20.48 5.22977 20.3675 5.86917H19.0048C19.0486 4.52378 20.2362 3.54471 21.8427 3.54471C23.5741 3.54471 24.6992 4.51046 24.6992 6.00903V11.1774H23.2991V9.93197H23.2678ZM21.4425 10.0253C20.6362 10.0253 20.1236 9.61235 20.1236 8.97962C20.1236 8.3269 20.6174 7.94726 21.5613 7.88732L23.2427 7.7741V8.3602C23.2427 9.33261 22.4676 10.0253 21.4425 10.0253ZM29.3434 11.5838C28.7371 13.402 28.0433 14.0015 26.5681 14.0015C26.4556 14.0015 26.0806 13.9881 25.9931 13.9615V12.716C26.0868 12.7293 26.3181 12.7427 26.4369 12.7427C27.1057 12.7427 27.4807 12.4429 27.712 11.6637L27.8495 11.2041L25.2867 3.64465H26.8682L28.6496 9.77882H28.6809L30.4623 3.64465H32L29.3434 11.5838Z" fill="black"/>
</svg>
