<svg width="34" height="14" viewBox="0 0 34 14" fill="none" xmlns="http://www.w3.org/2000/svg">
<path fill-rule="evenodd" clip-rule="evenodd" d="M15.6809 10.9525V6.84394H17.8014C18.6703 6.84394 19.4037 6.55278 20.0016 5.97856L20.1451 5.83298C21.2372 4.64409 21.1655 2.79201 20.0016 1.69209C19.4197 1.10977 18.6225 0.794355 17.8014 0.81053H14.3975V10.9525H15.6809ZM15.6811 5.59835V2.05594H17.8338C18.2963 2.05594 18.7348 2.23387 19.0617 2.55738C19.7553 3.23674 19.7713 4.36902 19.1015 5.07265C18.7746 5.42042 18.3122 5.61452 17.8338 5.59835H15.6811Z" fill="#3C4043"/>
<path fill-rule="evenodd" clip-rule="evenodd" d="M26.1319 4.55506C25.5818 4.04554 24.8325 3.78673 23.8839 3.78673C22.6642 3.78673 21.7474 4.23964 21.1416 5.13738L22.2736 5.85718C22.6881 5.24252 23.2541 4.93518 23.9716 4.93518C24.4259 4.93518 24.8644 5.10503 25.2072 5.41236C25.542 5.70352 25.7333 6.12407 25.7333 6.5689V6.86814C25.2391 6.59316 24.6173 6.44758 23.852 6.44758C22.9592 6.44758 22.2417 6.65786 21.7076 7.08651C21.1735 7.51516 20.9024 8.0813 20.9024 8.8011C20.8865 9.4562 21.1655 10.079 21.6598 10.4995C22.162 10.9524 22.7997 11.1789 23.5491 11.1789C24.4339 11.1789 25.1354 10.7826 25.6695 9.98999H25.7253V10.9524H26.953V6.67404C26.953 5.7763 26.6819 5.06459 26.1319 4.55506ZM22.6485 9.6746C22.3854 9.4805 22.2259 9.16508 22.2259 8.82539C22.2259 8.44527 22.4013 8.12985 22.7442 7.87914C23.095 7.62842 23.5335 7.49901 24.0517 7.49901C24.7693 7.49093 25.3274 7.65268 25.726 7.97619C25.726 8.52615 25.5108 9.00332 25.0882 9.40771C24.7055 9.79592 24.1873 10.0143 23.6451 10.0143C23.2863 10.0224 22.9355 9.90105 22.6485 9.6746Z" fill="#3C4043"/>
<path d="M29.7112 14.0015L34 4.01318H32.6049L30.62 8.99519H30.5961L28.5633 4.01318H27.1682L29.9823 10.5076L28.3879 14.0015H29.7112Z" fill="#3C4043"/>
<path d="M11.25 5.95433C11.25 5.55803 11.2181 5.16174 11.1544 4.77353H5.74158V7.01382H8.84257C8.71503 7.73362 8.3005 8.38064 7.69465 8.78502V10.2408H9.54408C10.6282 9.22984 11.25 7.73362 11.25 5.95433Z" fill="#4285F4"/>
<path d="M5.7418 11.6481C7.28831 11.6481 8.59545 11.1304 9.54408 10.2408L7.69465 8.78502C7.17649 9.14088 6.51506 9.34313 5.7418 9.34313C4.24312 9.34313 2.97562 8.31599 2.52123 6.94108H0.615989V8.44539C1.58854 10.4107 3.57349 11.6481 5.7418 11.6481Z" fill="#34A853"/>
<path d="M2.52123 6.94108C2.28204 6.22128 2.28227 5.43674 2.52146 4.70885V3.21262H0.615913C-0.205304 4.85442 -0.205304 6.79547 0.615913 8.43727L2.52123 6.94108Z" fill="#FBBC04"/>
<path d="M5.7418 2.30681C6.56289 2.29063 7.35209 2.60605 7.94199 3.18028L9.58416 1.51421C8.53987 0.527516 7.16874 -0.0143585 5.7418 0.00181683C3.57349 0.00181683 1.58846 1.24732 0.615913 3.21262L2.52123 4.71694C2.97562 3.33394 4.24312 2.30681 5.7418 2.30681Z" fill="#EA4335"/>
</svg>
