<svg aria-hidden="true" xmlns="http://www.w3.org/2000/svg" xmlns:xlink="http://www.w3.org/1999/xlink"><symbol viewBox="0 0 32 32" id="call" xmlns="http://www.w3.org/2000/svg">
<path d="M23.137 30C21.6626 30 20.11 29.6484 18.5051 28.9712C16.9394 28.307 15.3607 27.3953 13.8211 26.2884C12.2945 25.1684 10.8201 23.9181 9.42405 22.5507C8.04101 21.1572 6.78844 19.6856 5.6794 18.1749C4.55732 16.6121 3.65704 15.0493 3.01771 13.5386C2.33924 11.9237 2 10.3609 2 8.8893C2 7.87349 2.18267 6.90977 2.53495 6.01116C2.90028 5.08651 3.48742 4.22698 4.28332 3.48465C5.28798 2.49488 6.43616 2 7.66263 2C8.17148 2 8.69338 2.11721 9.137 2.32558C9.64585 2.56 10.0764 2.91163 10.3896 3.38047L13.4166 7.63907C13.6906 8.01674 13.8993 8.3814 14.0429 8.74605C14.2125 9.13674 14.3038 9.52744 14.3038 9.90512C14.3038 10.4 14.1603 10.8819 13.8863 11.3377C13.6906 11.6893 13.3905 12.067 13.0121 12.4447L12.1249 13.3693C12.1379 13.4084 12.151 13.4344 12.164 13.4605C12.3206 13.734 12.6337 14.2028 13.2339 14.906C13.8733 15.6353 14.4734 16.2995 15.0736 16.9116C15.8434 17.667 16.4828 18.266 17.0829 18.7609C17.8267 19.386 18.3094 19.6986 18.5965 19.8419L18.5704 19.907L19.5228 18.9693C19.9273 18.5656 20.3187 18.266 20.6971 18.0707C21.4147 17.6279 22.3281 17.5498 23.2414 17.9274C23.5806 18.0707 23.9459 18.266 24.3374 18.5395L28.6692 21.613C29.1519 21.9386 29.5042 22.3553 29.713 22.8502C29.9087 23.3451 30 23.8009 30 24.2567C30 24.8819 29.8565 25.507 29.5825 26.093C29.3085 26.6791 28.9692 27.187 28.5387 27.6558C27.795 28.4763 26.986 29.0623 26.0466 29.44C25.1463 29.8047 24.1678 30 23.137 30ZM7.66263 3.95349C6.94501 3.95349 6.27959 4.26605 5.64026 4.89116C5.04007 5.45116 4.62255 6.06326 4.3616 6.72744C4.0876 7.40465 3.95713 8.12093 3.95713 8.8893C3.95713 10.1005 4.24418 11.4158 4.81827 12.7702C5.40541 14.1507 6.2274 15.5833 7.2712 17.0158C8.315 18.4484 9.50233 19.8419 10.8071 21.1572C12.1118 22.4465 13.521 23.6447 14.9692 24.6995C16.3784 25.7284 17.8267 26.5619 19.2619 27.1609C21.493 28.1116 23.5806 28.333 25.3029 27.6167C25.9683 27.3433 26.5555 26.9265 27.0904 26.3274C27.3905 26.0019 27.6254 25.6502 27.8211 25.2335C27.9776 24.9079 28.0559 24.5693 28.0559 24.2307C28.0559 24.0223 28.0168 23.814 27.9124 23.5795C27.8733 23.5014 27.795 23.3581 27.5471 23.1888L23.2153 20.1153C22.9543 19.933 22.7195 19.8028 22.4977 19.7116C22.2106 19.5944 22.0932 19.4772 21.6496 19.7507C21.3886 19.8809 21.1538 20.0763 20.8928 20.3367L19.9012 21.3135C19.3924 21.8084 18.6095 21.9256 18.0093 21.7042L17.657 21.5479C17.1221 21.2614 16.4958 20.8186 15.8043 20.2326C15.178 19.6986 14.4995 19.0735 13.6775 18.266C13.0382 17.6149 12.3989 16.9247 11.7335 16.1563C11.1202 15.44 10.6766 14.8279 10.4026 14.32L10.246 13.9293C10.1678 13.6298 10.1417 13.4605 10.1417 13.2781C10.1417 12.8093 10.3113 12.3926 10.6375 12.067L11.616 11.0512C11.877 10.7907 12.0727 10.5433 12.2032 10.3219C12.3075 10.1526 12.3467 10.0093 12.3467 9.87907C12.3467 9.77488 12.3075 9.6186 12.2423 9.46233C12.151 9.25395 12.0075 9.01953 11.8248 8.77209L8.79776 4.50047C8.66729 4.31814 8.51072 4.18791 8.315 4.09674C8.10624 4.00558 7.88444 3.95349 7.66263 3.95349ZM18.5704 19.92L18.3616 20.8056L18.7139 19.894C18.6486 19.8809 18.5965 19.894 18.5704 19.92Z"/>
</symbol><symbol viewBox="0 0 32 32" id="cart" xmlns="http://www.w3.org/2000/svg">
<path d="M13.0456 29C11.4944 29 10.2324 27.7477 10.2324 26.2086C10.2324 24.6694 11.4944 23.4175 13.0456 23.4175C14.5967 23.4175 15.8587 24.6694 15.8587 26.2086C15.8587 27.7477 14.5967 29 13.0456 29ZM13.0456 25.1696C12.4682 25.1696 11.9981 25.6356 11.9981 26.2086C11.9981 26.7819 12.4678 27.248 13.0456 27.248C13.6234 27.248 14.093 26.7819 14.093 26.2086C14.093 25.6356 13.6234 25.1696 13.0456 25.1696Z"/>
<path d="M22.8264 29.0001C21.2752 29.0001 20.0137 27.7478 20.0137 26.2086C20.0137 24.6694 21.2752 23.4176 22.8264 23.4176C24.3775 23.4176 25.6395 24.6694 25.6395 26.2086C25.6395 27.7478 24.3771 29.0001 22.8264 29.0001ZM22.8264 25.1697C22.249 25.1697 21.7793 25.6357 21.7793 26.2086C21.7793 26.782 22.249 27.248 22.8264 27.248C23.4042 27.248 23.8739 26.782 23.8739 26.2086C23.8739 25.6357 23.4037 25.1697 22.8264 25.1697Z"/>
<path d="M24.8847 21.2533H11.0159C9.6665 21.2533 8.51397 20.3418 8.21292 19.0365L5.33445 6.56323C5.29649 6.39854 5.18172 6.2575 5.02723 6.18654L2.63961 5.08844C2.08696 4.83439 1.84639 4.18351 2.10241 3.63468C2.35843 3.08629 3.01481 2.84757 3.56747 3.10162L5.95508 4.19971C6.72447 4.55319 7.29699 5.25401 7.48591 6.07441L10.3644 18.5486C10.4341 18.8517 10.7021 19.0637 11.0159 19.0637H24.8847C25.1973 19.0637 25.4648 18.853 25.5363 18.5508L27.7743 8.99639C27.8383 8.72482 27.7217 8.52728 27.6471 8.43398C27.5721 8.34024 27.4043 8.18344 27.1236 8.18344H10.7912C10.1816 8.18344 9.68769 7.6933 9.68769 7.08841C9.68769 6.48351 10.1816 5.99337 10.7912 5.99337H27.1236C28.006 5.99337 28.8261 6.38627 29.3753 7.07176C29.9244 7.75725 30.1239 8.63941 29.9244 9.49222L27.686 19.047C27.381 20.3457 26.2293 21.2533 24.8847 21.2533Z"/>
</symbol><symbol viewBox="0 0 32 32" id="facebook" xmlns="http://www.w3.org/2000/svg">
<path d="M17 16H16V17V29H14.0283V17V16H13.0283H10V14H13.0283H14.0283V13V8.57894C14.0283 6.65612 14.6108 5.28936 15.5072 4.4035C16.4066 3.51457 17.7333 2.99996 19.4305 2.99996C20.1379 2.99996 20.7694 2.99109 21.2966 2.98368C21.4536 2.98147 21.6013 2.97939 21.7391 2.97772C21.8321 2.97659 21.919 2.9757 22 2.97505V5.00006H20.5C19.4061 5.00006 18.3408 5.14283 17.5136 5.57209C17.0868 5.79358 16.6983 6.10458 16.4186 6.53298C16.1352 6.96703 16 7.46628 16 8.00006V13V14H17H21.7192L21.2192 16H17Z" stroke-width="2"/>
</symbol><symbol viewBox="0 0 32 32" stroke-width="0" id="instagram" xmlns="http://www.w3.org/2000/svg">
<path d="M23.0001 1.99976H9.00037C5.15078 1.99976 2.00049 5.15004 2.00049 8.99963V23.0001C2.00049 26.8486 5.15078 29.9999 9.00037 29.9999H23.0001C26.8497 29.9999 30 26.8486 30 23.0001V8.99963C30 5.15004 26.8497 1.99976 23.0001 1.99976ZM28 23.0001C28 25.5725 25.574 28 23.0001 28H9.00037C6.42757 28 4 25.5725 4 23V9C4 6.42686 6.4272 4 9 4H23C25.5739 4 28 6.42649 28 8.99963V23.0001Z"/>
<path d="M23.5 10C24.3284 10 25 9.32843 25 8.5C25 7.67157 24.3284 7 23.5 7C22.6716 7 22 7.67157 22 8.5C22 9.32843 22.6716 10 23.5 10Z"/>
<path d="M16.0002 8.99957C12.1335 8.99957 9.00034 12.133 9.00034 15.9995C9.00034 19.8644 12.1335 23 16.0002 23C19.8659 23 23.0001 19.8644 23.0001 15.9995C23.0001 12.133 19.8659 8.99957 16.0002 8.99957ZM16.0002 20.9999C13.4232 20.9999 11.0001 18.5777 11.0001 15.9999C11.0001 13.4222 13.4231 10.9999 16.0001 10.9999C18.5771 10.9999 21.0001 13.4222 21.0001 15.9999C21.0001 18.5777 18.5772 20.9999 16.0002 20.9999Z"/>
</symbol><symbol viewBox="0 0 32 32" id="long-arrow" xmlns="http://www.w3.org/2000/svg">
<path fill-rule="evenodd" clip-rule="evenodd" d="M23.3431 9.27842L29.7071 15.3278C30.0976 15.6991 30.0976 16.3009 29.7071 16.6722L23.3431 22.7216C22.9526 23.0928 22.3195 23.0928 21.9289 22.7216C21.5384 22.3504 21.5384 21.7485 21.9289 21.3773L26.5858 16.9506H2.95057C2.42559 16.9506 2 16.525 2 16C2 15.475 2.42559 15.0494 2.95057 15.0494H26.5858L21.9289 10.6227C21.5384 10.2515 21.5384 9.64964 21.9289 9.27842C22.3195 8.90719 22.9526 8.90719 23.3431 9.27842Z"/>
</symbol><symbol viewBox="0 0 32 32" id="mail" xmlns="http://www.w3.org/2000/svg">
<path d="M22.5116 28H9.48837C4.73488 28 2 25.2757 2 20.5405V11.4595C2 6.72432 4.73488 4 9.48837 4H22.5116C27.2651 4 30 6.72432 30 11.4595V20.5405C30 25.2757 27.2651 28 22.5116 28ZM9.48837 5.94595C5.76372 5.94595 3.95349 7.74919 3.95349 11.4595V20.5405C3.95349 24.2508 5.76372 26.0541 9.48837 26.0541H22.5116C26.2363 26.0541 28.0465 24.2508 28.0465 20.5405V11.4595C28.0465 7.74919 26.2363 5.94595 22.5116 5.94595H9.48837Z"/>
<path d="M15.9997 17.1284C14.9058 17.1284 13.7988 16.7912 12.9523 16.1036L8.87599 12.8604C8.45924 12.5231 8.38111 11.9133 8.71972 11.4982C9.05832 11.083 9.67042 11.0052 10.0872 11.3425L14.1634 14.5858C15.1532 15.3771 16.8332 15.3771 17.823 14.5858L21.8992 11.3425C22.316 11.0052 22.9411 11.0701 23.2667 11.4982C23.6053 11.9133 23.5402 12.536 23.1104 12.8604L19.0341 16.1036C18.2006 16.7912 17.0937 17.1284 15.9997 17.1284Z"/>
</symbol><symbol viewBox="0 0 32 32" id="price" xmlns="http://www.w3.org/2000/svg">
<path d="M23.3536 21.1915H20.2804V17.7928C22.8023 16.3212 24.5 13.5918 24.5 10.4742C24.4999 5.80147 20.6869 2 16 2C11.3131 2 7.5 5.80147 7.5 10.4742C7.5 13.5919 9.19768 16.3212 11.7196 17.7929V21.1916H8.64644C8.3118 21.1916 8.01047 21.3935 7.88414 21.7025C7.75781 22.0114 7.83173 22.3658 8.071 22.5991L15.4246 29.7662C15.5845 29.9221 15.7922 30 15.9999 30C16.2077 30 16.4154 29.922 16.5753 29.7662L23.9289 22.5991C24.1682 22.3658 24.2421 22.0115 24.1157 21.7025C23.9895 21.3935 23.6881 21.1915 23.3536 21.1915ZM9.14632 10.4742C9.14632 6.7065 12.2208 3.64132 16 3.64132C19.7792 3.64132 22.8537 6.7065 22.8537 10.4742C22.8537 14.2419 19.7792 17.3071 16 17.3071C12.2208 17.3071 9.14632 14.2419 9.14632 10.4742ZM16 28.0317L10.666 22.8329H12.5427C12.9973 22.8329 13.3659 22.4654 13.3659 22.0122V18.5314C14.1956 18.8016 15.0809 18.9484 16 18.9484C16.9191 18.9484 17.8044 18.8016 18.6341 18.5314V22.0122C18.6341 22.4654 19.0027 22.8329 19.4573 22.8329H21.334L16 28.0317Z"/>
<path d="M15.92 9.56471C15.0678 9.25073 14.9266 9.04578 14.9296 8.69842C14.9357 8.02099 15.6147 7.94916 15.9051 7.95222C16.3325 7.95408 17.0107 8.15449 17.0107 8.6842C17.0107 9.13742 17.3792 9.50486 17.8339 9.50486C18.2885 9.50486 18.657 9.13742 18.657 8.6842C18.657 7.48226 17.7882 6.71029 16.772 6.42973V5.83043C16.772 5.3772 16.4034 5.00977 15.9488 5.00977C15.4942 5.00977 15.1257 5.3772 15.1257 5.83043V6.40642C14.7699 6.4962 14.4442 6.6477 14.1713 6.85582C13.6053 7.28743 13.29 7.93657 13.2833 8.68376C13.2682 10.3728 14.7778 10.9044 15.5033 11.1599"/>
<path d="M15.5042 11.1606C16.6476 11.5515 17.0751 11.7896 17.0712 12.2249C17.0652 12.8964 16.3989 12.9712 16.1035 12.9712C16.1009 12.9712 16.0983 12.9712 16.0957 12.9712C15.6682 12.9693 14.9901 12.7689 14.9901 12.2392C14.9901 11.786 14.6215 11.4185 14.1669 11.4185C13.7123 11.4185 13.3438 11.786 13.3438 12.2392C13.3438 13.4412 14.2125 14.2132 15.2288 14.4937V15.118C15.2288 15.5713 15.5974 15.9387 16.052 15.9387C16.5066 15.9387 16.8752 15.5713 16.8752 15.118V14.5176C17.2308 14.4276 17.5568 14.2755 17.8295 14.0676C18.3955 13.636 18.7109 12.9868 18.7176 12.2396C18.7329 10.527 16.9216 9.90765 15.9208 9.56543"/>
</symbol><symbol viewBox="0 0 32 32" id="quality" xmlns="http://www.w3.org/2000/svg">
<path d="M22.0893 30C21.75 30.001 21.4167 29.9108 21.124 29.7388C20.8313 29.5668 20.5899 29.3193 20.4249 29.022L17.1872 23.4016C17.0579 23.1768 17.0229 22.9097 17.09 22.6591C17.157 22.4084 17.3206 22.1947 17.5448 22.065C17.7689 21.9353 18.0353 21.9002 18.2852 21.9675C18.5352 22.0348 18.7483 22.1988 18.8776 22.4236L22.1153 28.044L22.9215 26.0618C23.0885 25.6806 23.3733 25.3633 23.7339 25.1567C24.0944 24.9501 24.5116 24.8651 24.9239 24.9143L27.0563 25.1751L23.1555 18.4333C23.0915 18.322 23.0499 18.1991 23.0332 18.0717C23.0166 17.9443 23.0251 17.8149 23.0583 17.6907C23.0915 17.5666 23.1487 17.4503 23.2268 17.3484C23.3048 17.2464 23.4021 17.1609 23.5131 17.0967C23.6241 17.0325 23.7466 16.9908 23.8736 16.9741C24.0007 16.9574 24.1298 16.9659 24.2535 16.9992C24.3773 17.0325 24.4933 17.0899 24.5949 17.1682C24.6966 17.2464 24.7818 17.344 24.8459 17.4553L28.7467 24.2101C28.9237 24.5236 29.0109 24.88 28.9988 25.24C28.9866 25.6 28.8756 25.9497 28.6779 26.2504C28.4802 26.5512 28.2036 26.7914 27.8784 26.9445C27.5533 27.0976 27.1923 27.1577 26.8353 27.1181L24.7028 26.8443L23.8837 28.8133C23.743 29.1488 23.5111 29.4379 23.2146 29.6477C22.918 29.8575 22.5686 29.9796 22.2063 30H22.0893Z"/>
<path d="M9.8661 30H9.76208C9.39972 29.9796 9.05037 29.8575 8.75381 29.6477C8.45725 29.4379 8.22541 29.1488 8.08471 28.8133L7.23953 26.8312L5.13308 27.1051C4.77699 27.152 4.41492 27.0974 4.08836 26.9475C3.76179 26.7976 3.48395 26.5584 3.28668 26.2574C3.09923 25.9515 3 25.5994 3 25.2403C3 24.8812 3.09923 24.5291 3.28668 24.2232L7.18752 17.4553C7.31684 17.2305 7.52991 17.0664 7.77986 16.9992C8.0298 16.9319 8.29615 16.967 8.52031 17.0967C8.74446 17.2264 8.90807 17.4401 8.97513 17.6907C9.04218 17.9414 9.00721 18.2085 8.87788 18.4333L4.97704 25.1882L7.0965 24.9143C7.50934 24.8608 7.92831 24.944 8.28974 25.1511C8.65116 25.3582 8.93529 25.678 9.09893 26.0618L9.94411 28.044L13.1168 22.4236C13.2461 22.1988 13.4592 22.0348 13.7091 21.9675C13.9591 21.9003 14.2254 21.9353 14.4496 22.065C14.6737 22.1947 14.8373 22.4084 14.9044 22.6591C14.9715 22.9097 14.9365 23.1768 14.8072 23.4016L11.5305 29.022C11.3655 29.3193 11.1241 29.5668 10.8314 29.7388C10.5387 29.9108 10.2053 30.001 9.8661 30Z"/>
<path d="M15.9783 24.9924C15.1119 24.9932 14.2802 24.6511 13.6638 24.0405L12.5196 22.893C12.3992 22.7697 12.2556 22.6717 12.0971 22.6046C11.9386 22.5374 11.7684 22.5025 11.5964 22.5018H10.2961C9.43157 22.4983 8.60342 22.1524 7.9921 21.5393C7.38078 20.9262 7.03583 20.0957 7.0324 19.2287V17.9246C7.03544 17.7415 6.99996 17.5597 6.92827 17.3912C6.85658 17.2227 6.75028 17.0712 6.61631 16.9466L5.45906 15.7991C4.85023 15.1809 4.50913 14.3468 4.50986 13.4779C4.50667 13.0503 4.58774 12.6263 4.7484 12.2302C4.90906 11.8341 5.14615 11.4738 5.44606 11.1698L6.61631 10.0092C6.73682 9.8874 6.83217 9.74289 6.89687 9.58401C6.96158 9.42513 6.99438 9.25501 6.99339 9.08339V7.77937C6.98824 7.34673 7.06834 6.91734 7.22907 6.51582C7.38981 6.11431 7.62803 5.74858 7.93006 5.43962C8.23209 5.13067 8.59198 4.88457 8.98908 4.71545C9.38619 4.54633 9.81268 4.45752 10.2441 4.45412H11.5444C11.7155 4.45511 11.8851 4.42222 12.0436 4.35732C12.202 4.29243 12.3461 4.19681 12.4676 4.07595L13.6638 2.94145C14.289 2.33746 15.1233 2 15.9913 2C16.8594 2 17.6937 2.33746 18.3188 2.94145L19.4631 4.08899C19.5846 4.20985 19.7287 4.30547 19.8871 4.37036C20.0455 4.43526 20.2152 4.46815 20.3863 4.46716H21.6866C22.5534 4.47061 23.3835 4.81835 23.9951 5.43424C24.6068 6.05014 24.9503 6.88401 24.9503 7.75329V9.05731C24.9493 9.22893 24.9821 9.39905 25.0468 9.55793C25.1115 9.71681 25.2068 9.86132 25.3274 9.98316L26.4846 11.1437C27.0905 11.7609 27.4301 12.5923 27.4301 13.4584C27.4301 14.3245 27.0905 15.1558 26.4846 15.773L25.3274 16.9206C25.2053 17.0439 25.109 17.1906 25.0443 17.3518C24.9795 17.513 24.9476 17.6856 24.9503 17.8594V19.1635C24.9572 19.5961 24.8788 20.0258 24.7196 20.428C24.5605 20.8302 24.3237 21.1969 24.0229 21.5071C23.722 21.8172 23.3631 22.0648 22.9666 22.2355C22.5702 22.4062 22.144 22.4967 21.7126 22.5018H20.4123C20.2403 22.5025 20.0701 22.5374 19.9116 22.6046C19.7531 22.6717 19.6095 22.7697 19.4891 22.893L18.3448 24.0405C18.0334 24.3491 17.6637 24.5923 17.2573 24.7558C16.8509 24.9192 16.4161 24.9997 15.9783 24.9924ZM10.2441 6.41015C9.89924 6.41015 9.56851 6.54754 9.32466 6.79209C9.08081 7.03664 8.94381 7.36832 8.94381 7.71417V9.01819C8.94529 9.4467 8.86217 9.87126 8.69926 10.2674C8.53635 10.6635 8.29686 11.0234 7.99461 11.3263L6.85036 12.4869C6.7275 12.6077 6.62976 12.7517 6.5628 12.9106C6.49584 13.0695 6.46099 13.2402 6.46028 13.4127C6.45926 13.5875 6.49327 13.7606 6.56028 13.9219C6.62729 14.0832 6.72593 14.2293 6.85036 14.3516L7.99461 15.4992C8.29843 15.8036 8.53881 16.1656 8.70177 16.5641C8.86473 16.9626 8.94701 17.3896 8.94381 17.8203V19.1243C8.94381 19.4702 9.08081 19.8019 9.32466 20.0464C9.56851 20.291 9.89924 20.4284 10.2441 20.4284H11.5444C11.9729 20.4264 12.3974 20.5108 12.7928 20.6766C13.1881 20.8423 13.5463 21.0861 13.8459 21.3933L14.9901 22.5409C15.2434 22.7802 15.5783 22.9135 15.9263 22.9135C16.2743 22.9135 16.6092 22.7802 16.8625 22.5409L18.0068 21.3933C18.3064 21.0861 18.6645 20.8423 19.0599 20.6766C19.4552 20.5108 19.8798 20.4264 20.3083 20.4284H21.6086C21.9534 20.4284 22.2841 20.291 22.528 20.0464C22.7718 19.8019 22.9088 19.4702 22.9088 19.1243V17.8203C22.9056 17.3896 22.9879 16.9626 23.1509 16.5641C23.3138 16.1656 23.5542 15.8036 23.858 15.4992L25.0153 14.3516C25.1391 14.2302 25.2375 14.0852 25.3047 13.925C25.3719 13.7649 25.4065 13.593 25.4065 13.4193C25.4065 13.2455 25.3719 13.0736 25.3047 12.9135C25.2375 12.7534 25.1391 12.6083 25.0153 12.4869L23.858 11.3263C23.5558 11.0234 23.3163 10.6635 23.1534 10.2674C22.9905 9.87126 22.9074 9.4467 22.9088 9.01819V7.71417C22.9088 7.36832 22.7718 7.03664 22.528 6.79209C22.2841 6.54754 21.9534 6.41015 21.6086 6.41015H20.3083C19.881 6.41163 19.4576 6.32827 19.0626 6.16489C18.6676 6.00151 18.3088 5.76134 18.0068 5.45821L16.8625 4.31068C16.7412 4.18447 16.5958 4.08408 16.435 4.01552C16.2741 3.94695 16.1011 3.91161 15.9263 3.91161C15.7515 3.91161 15.5786 3.94695 15.4177 4.01552C15.2568 4.08408 15.1114 4.18447 14.9901 4.31068L13.8459 5.45821C13.5439 5.76134 13.185 6.00151 12.79 6.16489C12.395 6.32827 11.9717 6.41163 11.5444 6.41015H10.2441Z"/>
<path d="M15.1185 16.5298C14.8565 16.5275 14.6053 16.4248 14.4163 16.2429L12.2579 14.0652C12.0752 13.8818 11.9727 13.6332 11.9727 13.3741C11.9727 13.1149 12.0752 12.8663 12.2579 12.6829C12.4445 12.5021 12.694 12.401 12.9535 12.401C13.2131 12.401 13.4625 12.5021 13.6492 12.6829L15.1185 14.1695L18.7593 10.5052C18.9459 10.3244 19.1954 10.2233 19.4549 10.2233C19.7145 10.2233 19.9639 10.3244 20.1506 10.5052C20.3332 10.6886 20.4358 10.9372 20.4358 11.1963C20.4358 11.4555 20.3332 11.7041 20.1506 11.8875L15.8076 16.2429C15.6234 16.424 15.3765 16.5268 15.1185 16.5298Z"/>
</symbol><symbol viewBox="0 0 32 32" id="sale-line" xmlns="http://www.w3.org/2000/svg">
<path d="M29.4139 14.4948L27.5047 12.4322C27.4317 12.3532 27.3769 12.2579 27.3444 12.1536C27.3118 12.0492 27.3024 11.9385 27.3168 11.8298L27.7001 8.99135C27.8576 7.82747 27.1113 6.75739 26.0026 6.55494L23.2965 6.05976C23.1927 6.0405 23.0945 5.99682 23.0094 5.93204C22.9242 5.86726 22.8543 5.78308 22.805 5.68589L21.5192 3.15499C20.9912 2.11527 19.7838 1.70614 18.7711 2.22386L16.3042 3.48366C16.2094 3.53171 16.1054 3.55667 16 3.55667C15.8946 3.55667 15.7906 3.53171 15.6958 3.48366L13.2289 2.22386C12.2156 1.70608 11.0095 2.11521 10.4808 3.15499L9.19503 5.68589C9.09495 5.88481 8.91514 6.02027 8.70355 6.05976L5.99805 6.55494C4.88866 6.75665 4.143 7.82747 4.3005 8.99061L4.68315 11.8298C4.7129 12.0513 4.6453 12.2713 4.49524 12.4322L2.5861 14.4947C2.21028 14.8977 2 15.4377 2 16C2 16.5623 2.21028 17.1023 2.5861 17.5053L4.49524 19.5678C4.56822 19.6468 4.62305 19.7421 4.6556 19.8465C4.68815 19.9508 4.69757 20.0615 4.68315 20.1702L4.29984 23.0087C4.14234 24.1726 4.88866 25.2426 5.99734 25.4451L8.7035 25.9403C8.80726 25.9595 8.90545 26.0032 8.99061 26.068C9.07577 26.1328 9.14566 26.217 9.19497 26.3141L10.4808 28.845C11.0094 29.8848 12.2162 30.2939 13.2289 29.7762L15.6957 28.5164C15.7905 28.4683 15.8946 28.4434 16 28.4434C16.1054 28.4434 16.2094 28.4683 16.3042 28.5164L18.771 29.7762C19.0678 29.9278 19.3808 29.9998 19.6891 29.9998C20.4327 29.9998 21.1459 29.5801 21.5191 28.8451L22.8049 26.3142C22.905 26.1153 23.0848 25.9799 23.2964 25.9403L26.0019 25.4452C27.1112 25.2434 27.8569 24.1726 27.6994 23.0095L27.3167 20.1703C27.287 19.9488 27.3545 19.7288 27.5046 19.5679L29.4138 17.5054C29.7896 17.1025 30 16.5624 30 16.0001C30 15.4378 29.7897 14.8977 29.4139 14.4948ZM28.4181 16.5022L26.5089 18.5634C26.0607 19.0472 25.8559 19.7061 25.9458 20.372L26.3284 23.2105C26.3543 23.396 26.3098 23.5848 26.2042 23.7366C26.0986 23.8884 25.9404 23.9912 25.7633 24.0231L23.0564 24.5182C22.421 24.6347 21.8835 25.043 21.5814 25.6377L20.2955 28.1679C20.1198 28.5149 19.7182 28.6518 19.3795 28.479L16.9127 27.2185C16.6274 27.0732 16.3137 26.9998 16.0001 26.9998C15.6864 26.9998 15.3727 27.0732 15.0874 27.2191L12.6206 28.4783C12.2832 28.6518 11.8803 28.5149 11.7046 28.1679L10.4188 25.637C10.1166 25.0417 9.57844 24.634 8.94232 24.5182L6.23682 24.0224C6.05973 23.9906 5.90152 23.888 5.79584 23.7363C5.69016 23.5847 5.64536 23.396 5.67097 23.2105L6.05427 20.372C6.14418 19.7061 5.93932 19.0473 5.49181 18.5641L3.58202 16.5022C3.45684 16.3677 3.38683 16.1875 3.38683 16C3.38683 15.8125 3.45684 15.6323 3.58202 15.4978L5.49116 13.4367C5.93937 12.9528 6.14418 12.294 6.05427 11.628L5.67162 8.78958C5.64573 8.60399 5.69031 8.41519 5.79588 8.26341C5.90144 8.11162 6.05964 8.00884 6.23676 7.97697L8.94363 7.48179C9.5791 7.36538 10.1166 6.95699 10.4187 6.36236L11.7045 3.83213C11.8803 3.48509 12.2832 3.34968 12.6205 3.52103L15.0874 4.78158C15.6579 5.07219 16.3421 5.07288 16.9127 4.7809L19.3795 3.52183C19.7176 3.34831 20.1198 3.48514 20.2955 3.83219L21.5814 6.3631C21.8836 6.95842 22.4217 7.36618 23.0578 7.48185L25.7633 7.97771C25.9404 8.00949 26.0986 8.11212 26.2043 8.26375C26.31 8.41539 26.3548 8.60406 26.3292 8.78964L25.9459 11.6281C25.8559 12.294 26.0608 12.9528 26.5083 13.436L28.4181 15.4978C28.5433 15.6324 28.6133 15.8125 28.6133 16C28.6133 16.1876 28.5432 16.3677 28.4181 16.5022Z"/>
<path d="M20.6434 11.1558C20.3729 10.8736 19.9349 10.8736 19.6645 11.1558L11.3573 19.8235C11.0869 20.1057 11.0869 20.5628 11.3573 20.8449C11.4925 20.986 11.6696 21.0566 11.8468 21.0566C12.0239 21.0566 12.201 20.9861 12.3362 20.8449L20.6434 12.1772C20.9137 11.895 20.9137 11.4379 20.6434 11.1558ZM15.3108 12.3902C15.3108 10.796 14.0682 9.49951 12.5404 9.49951C11.0125 9.49951 9.76996 10.796 9.76996 12.3902C9.76996 13.9844 11.0125 15.2809 12.5404 15.2809C14.0682 15.2809 15.3108 13.9844 15.3108 12.3902ZM11.1545 12.3902C11.1545 11.5931 11.7765 10.9441 12.5404 10.9441C13.3044 10.9441 13.9263 11.5931 13.9263 12.3902C13.9263 13.1873 13.3044 13.8362 12.5404 13.8362C11.7764 13.8362 11.1545 13.1873 11.1545 12.3902ZM19.4602 16.7198C17.9324 16.7198 16.6898 18.0163 16.6898 19.6105C16.6898 21.2047 17.9324 22.5012 19.4602 22.5012C20.9881 22.5012 22.2307 21.2047 22.2307 19.6105C22.2307 18.0163 20.9881 16.7198 19.4602 16.7198ZM19.4602 21.0565C18.6963 21.0565 18.0744 20.4076 18.0744 19.6105C18.0744 18.8134 18.6963 18.1644 19.4602 18.1644C20.2242 18.1644 20.8461 18.8134 20.8461 19.6105C20.8461 20.4076 20.2242 21.0565 19.4602 21.0565Z"/>
</symbol><symbol viewBox="0 0 32 32" id="send" xmlns="http://www.w3.org/2000/svg">
<path d="M19.5794 30C19.0375 29.9915 18.508 29.8369 18.0464 29.5526C17.5848 29.2683 17.2082 28.8647 16.9562 28.3842L12.3918 20.0295C12.2924 19.8384 12.1367 19.6825 11.9459 19.5829L3.60413 15.0772C3.0741 14.7888 2.64066 14.3504 2.35796 13.8167C2.07526 13.2831 1.95583 12.6778 2.01461 12.0766C2.07338 11.4753 2.30774 10.9047 2.68841 10.4361C3.06908 9.96751 3.57919 9.62163 4.155 9.44169L25.8882 2.17732C26.437 1.98252 27.0297 1.9474 27.5976 2.07604C28.1656 2.20467 28.6855 2.4918 29.0972 2.90417C29.509 3.31654 29.7956 3.83728 29.9241 4.4061C30.0525 4.97491 30.0175 5.56853 29.823 6.11821L22.5174 27.8982C22.3338 28.4662 21.9869 28.9673 21.5203 29.3388C21.0537 29.7104 20.4881 29.9358 19.8942 29.9869L19.5794 30ZM26.4522 4.05581L4.71899 11.3202C4.51179 11.3869 4.32897 11.5136 4.19359 11.6842C4.0582 11.8549 3.97631 12.0619 3.95826 12.2791C3.93868 12.4938 3.98305 12.7094 4.08577 12.8988C4.18848 13.0881 4.34494 13.2428 4.53536 13.3432L12.8771 17.8489C13.4077 18.1308 13.8417 18.5655 14.1231 19.0969L18.5826 27.4516C18.6828 27.6423 18.8372 27.799 19.0263 27.9018C19.2154 28.0047 19.4307 28.0492 19.645 28.0296C19.8618 28.0115 20.0685 27.9295 20.2389 27.7939C20.4093 27.6583 20.5358 27.4752 20.6024 27.2676L27.8949 5.5008C27.9798 5.29868 28.0027 5.07581 27.9605 4.86063C27.9184 4.64545 27.8132 4.44772 27.6584 4.29267C27.5036 4.13761 27.3062 4.03227 27.0913 3.99009C26.8765 3.9479 26.654 3.97078 26.4522 4.05581Z"/>
<path d="M12.9024 20.0563C12.7729 20.0592 12.6441 20.035 12.5244 19.9852C12.4047 19.9355 12.2967 19.8612 12.2073 19.7673C12.1145 19.6767 12.0407 19.5684 11.9904 19.4488C11.94 19.3293 11.9141 19.2008 11.9141 19.071C11.9141 18.9413 11.94 18.8128 11.9904 18.6932C12.0407 18.5736 12.1145 18.4654 12.2073 18.3748L27.6317 2.87397C27.823 2.68236 28.0825 2.57471 28.3531 2.57471C28.6236 2.57471 28.8831 2.68236 29.0744 2.87397C29.2658 3.06559 29.3732 3.32548 29.3732 3.59647C29.3732 3.86746 29.2658 4.12735 29.0744 4.31897L13.5976 19.7673C13.5068 19.8594 13.3985 19.9324 13.2791 19.982C13.1598 20.0316 13.0317 20.0569 12.9024 20.0563Z"/>
</symbol><symbol viewBox="0 0 32 32" id="share" xmlns="http://www.w3.org/2000/svg">
<path d="M24.8512 19.7958C23.2163 19.7958 21.7742 20.5681 20.8321 21.7507L12.0934 17.3196C12.2078 16.8965 12.29 16.4594 12.29 15.9994C12.29 15.4985 12.1923 15.027 12.0561 14.5682L20.7562 10.1575C21.6932 11.3937 23.1725 12.2017 24.8524 12.2017C27.6981 12.2017 30 9.91923 30 7.10022C30.0001 4.28375 27.6981 2 24.8525 2C22.0133 2 19.7088 4.28375 19.7088 7.10016C19.7088 7.56151 19.791 7.99989 19.9067 8.42426L11.1693 12.8554C10.2259 11.6715 8.78116 10.8967 7.14371 10.8967C4.30063 10.8967 2 13.1816 2 15.9994C2 18.8171 4.30069 21.1008 7.14371 21.1008C8.82615 21.1008 10.3043 20.2903 11.245 19.0529L19.9413 23.4635C19.8051 23.9211 19.7061 24.3964 19.7061 24.8985C19.7061 27.7163 22.0106 30 24.8499 30C27.6955 30 29.9974 27.7163 29.9974 24.8985C29.9987 22.0783 27.6968 19.7958 24.8512 19.7958Z"/>
</symbol><symbol viewBox="0 0 32 32" stroke-width="0" id="telegram" xmlns="http://www.w3.org/2000/svg">
<path fill-rule="evenodd" clip-rule="evenodd" d="M3.92424 14.3319C11.4379 10.9449 16.4483 8.71196 18.9551 7.63321C26.1129 4.553 27.6002 4.01789 28.5696 4.00019C28.7828 3.99633 29.2595 4.05102 29.5683 4.31029C30.0264 4.69487 30.029 5.52966 29.9782 6.08216C29.5903 10.2988 27.9119 20.5314 27.0581 25.2541C26.6967 27.2525 25.9853 27.9226 25.2967 27.9881C23.7999 28.1306 22.6634 26.9647 21.2137 25.9815C18.9452 24.443 17.6637 23.4853 15.4617 21.984C12.917 20.249 14.5667 19.2955 16.0169 17.7371C16.3964 17.3293 22.9911 11.1231 23.1187 10.5601C23.1348 10.4897 23.1495 10.2272 22.9988 10.0886C22.8481 9.95008 22.6257 9.99737 22.4652 10.0351C22.2377 10.0885 18.6138 12.5667 11.5936 17.4697C10.5649 18.2005 9.63322 18.5565 8.79848 18.5379C7.87816 18.5174 6.108 17.9996 4.79201 17.557C3.1779 17.0141 1.89503 16.7271 2.00679 15.8052C2.06498 15.3249 2.7041 14.8338 3.92424 14.3319Z"/>
</symbol><symbol viewBox="0 0 32 32" stroke-width="0" id="tiktok" xmlns="http://www.w3.org/2000/svg">
<path d="M26.9871 9.01082C25.4257 9.01082 23.9851 8.48062 22.8282 7.5862C21.5014 6.56087 20.5481 5.05683 20.2115 3.32329C20.1281 2.89497 20.0832 2.45296 20.079 2H15.6187V14.4924L15.6133 21.3351C15.6133 23.1645 14.4511 24.7156 12.84 25.2611C12.3725 25.4194 11.8675 25.4945 11.3417 25.4649C10.6705 25.4271 10.0416 25.2195 9.49496 24.8843C8.33166 24.1712 7.54295 22.8774 7.52158 21.3975C7.48791 19.0845 9.31221 17.1987 11.5672 17.1987C12.0123 17.1987 12.4398 17.2732 12.84 17.4085V13.994V12.7665C12.4179 12.7025 11.9883 12.669 11.5538 12.669C9.08564 12.669 6.77722 13.7207 5.12713 15.6152C3.87994 17.047 3.13184 18.8736 3.01642 20.789C2.8652 23.3052 3.76345 25.6971 5.50545 27.4619C5.76141 27.7209 6.03019 27.9614 6.31126 28.1832C7.80479 29.3614 9.63068 30 11.5538 30C11.9883 30 12.4179 29.9671 12.84 29.9031C14.6365 29.6303 16.2941 28.7873 17.6022 27.4619C19.2096 25.8335 20.0977 23.6716 20.1073 21.3707L20.0843 11.1524C20.8511 11.7587 21.6895 12.2604 22.5894 12.6499C23.9888 13.2551 25.4727 13.5618 26.9999 13.5613V10.2415V9.00972C27.001 9.01082 26.9882 9.01082 26.9871 9.01082Z"/>
</symbol><symbol viewBox="0 0 32 32" id="time" xmlns="http://www.w3.org/2000/svg">
<path d="M20.9877 18.4725L17.0837 15.5445V9.58018C17.0837 8.98048 16.599 8.49573 15.9992 8.49573C15.3995 8.49573 14.9148 8.98048 14.9148 9.58018V16.0868C14.9148 16.4284 15.0753 16.7505 15.3486 16.9544L19.6863 20.2077C19.8815 20.3541 20.1092 20.4245 20.3359 20.4245C20.6666 20.4245 20.9919 20.276 21.2045 19.9897C21.5646 19.5114 21.467 18.8314 20.9877 18.4725Z"/>
<path d="M16 2C8.27993 2 2 8.27993 2 16C2 23.7201 8.27993 30 16 30C23.7201 30 30 23.7201 30 16C30 8.27993 23.7201 2 16 2ZM16 27.8311C9.47715 27.8311 4.16885 22.5229 4.16885 16C4.16885 9.47715 9.47715 4.16885 16 4.16885C22.5239 4.16885 27.8311 9.47715 27.8311 16C27.8311 22.5229 22.5229 27.8311 16 27.8311Z"/>
</symbol><symbol viewBox="0 0 32 32" id="truck-fast" xmlns="http://www.w3.org/2000/svg">
<path d="M17.3024 19.5814H16C15.4661 19.5814 15.0233 19.1386 15.0233 18.6047C15.0233 18.0707 15.4661 17.6279 16 17.6279H17.3024C18.201 17.6279 18.9303 16.8986 18.9303 16V3.95349H8.18608C6.64934 3.95349 5.24279 4.78695 4.48744 6.12835C4.22698 6.59719 3.62796 6.76654 3.15912 6.50607C2.69029 6.24561 2.52093 5.64651 2.7814 5.17768C3.87535 3.22419 5.94608 2 8.18608 2H19.907C20.441 2 20.8838 2.44279 20.8838 2.97674V16C20.8838 17.9795 19.2819 19.5814 17.3024 19.5814Z"/>
<path d="M25.1163 27.3954H23.814C23.28 27.3954 22.8372 26.9526 22.8372 26.4186C22.8372 25.52 22.1079 24.7907 21.2093 24.7907C20.3107 24.7907 19.5814 25.52 19.5814 26.4186C19.5814 26.9526 19.1386 27.3954 18.6047 27.3954H13.3953C12.8614 27.3954 12.4186 26.9526 12.4186 26.4186C12.4186 25.52 11.6893 24.7907 10.7907 24.7907C9.89209 24.7907 9.16279 25.52 9.16279 26.4186C9.16279 26.9526 8.72 27.3954 8.18605 27.3954H6.88372C4.18791 27.3954 2 25.2074 2 22.5116C2 21.9777 2.44279 21.5349 2.97674 21.5349C3.5107 21.5349 3.95349 21.9777 3.95349 22.5116C3.95349 24.1265 5.26884 25.4419 6.88372 25.4419H7.3395C7.76927 23.9442 9.14977 22.8372 10.7907 22.8372C12.4316 22.8372 13.8121 23.9442 14.2419 25.4419H17.7711C18.2009 23.9442 19.5814 22.8372 21.2223 22.8372C22.8633 22.8372 24.2437 23.9442 24.6735 25.4419H25.1163C26.7312 25.4419 28.0465 24.1265 28.0465 22.5116V19.5814H25.1163C23.866 19.5814 22.8372 18.5526 22.8372 17.3023V13.3954C22.8372 12.1451 23.853 11.1163 25.1163 11.1163L23.7228 8.68094C23.4363 8.17303 22.8893 7.86047 22.3033 7.86047H20.8837V16C20.8837 17.9795 19.2819 19.5814 17.3023 19.5814H16C15.466 19.5814 15.0233 19.1386 15.0233 18.6047C15.0233 18.0707 15.466 17.6279 16 17.6279H17.3023C18.2009 17.6279 18.9302 16.8986 18.9302 16V6.88373C18.9302 6.34977 19.373 5.90698 19.907 5.90698H22.3033C23.5926 5.90698 24.7776 6.59723 25.4158 7.71723L27.6428 11.6112C27.8121 11.9107 27.8121 12.2884 27.6428 12.5879C27.4735 12.8875 27.1479 13.0698 26.7963 13.0698H25.1163C24.934 13.0698 24.7907 13.213 24.7907 13.3954V17.3023C24.7907 17.4847 24.934 17.6279 25.1163 17.6279H29.0233C29.5572 17.6279 30 18.0707 30 18.6047V22.5116C30 25.2074 27.8121 27.3954 25.1163 27.3954Z"/>
<path d="M10.7904 29.9999C8.81084 29.9999 7.20898 28.3981 7.20898 26.4186C7.20898 24.439 8.81084 22.8372 10.7904 22.8372C12.7699 22.8372 14.3718 24.439 14.3718 26.4186C14.3718 28.3981 12.7699 29.9999 10.7904 29.9999ZM10.7904 24.7906C9.89177 24.7906 9.16247 25.5199 9.16247 26.4186C9.16247 27.3172 9.89177 28.0465 10.7904 28.0465C11.689 28.0465 12.4183 27.3172 12.4183 26.4186C12.4183 25.5199 11.689 24.7906 10.7904 24.7906Z"/>
<path d="M21.2093 29.9999C19.2298 29.9999 17.6279 28.3981 17.6279 26.4186C17.6279 24.439 19.2298 22.8372 21.2093 22.8372C23.1889 22.8372 24.7907 24.439 24.7907 26.4186C24.7907 28.3981 23.1889 29.9999 21.2093 29.9999ZM21.2093 24.7906C20.3107 24.7906 19.5814 25.5199 19.5814 26.4186C19.5814 27.3172 20.3107 28.0465 21.2093 28.0465C22.1079 28.0465 22.8372 27.3172 22.8372 26.4186C22.8372 25.5199 22.1079 24.7906 21.2093 24.7906Z"/>
<path d="M29.023 19.5813H25.116C23.8658 19.5813 22.8369 18.5525 22.8369 17.3023V13.3953C22.8369 12.145 23.8658 11.1162 25.116 11.1162H26.796C27.1476 11.1162 27.4732 11.2985 27.6425 11.6111L29.8695 15.5181C29.9476 15.6613 29.9997 15.8306 29.9997 15.9999V18.6046C29.9997 19.1385 29.5569 19.5813 29.023 19.5813ZM25.116 13.0697C24.9337 13.0697 24.7904 13.213 24.7904 13.3953V17.3023C24.7904 17.4846 24.9337 17.6278 25.116 17.6278H28.0462V16.2604L26.2229 13.0697H25.116Z"/>
<path d="M10.7907 11.7675H2.97674C2.44279 11.7675 2 11.3247 2 10.7907C2 10.2568 2.44279 9.81396 2.97674 9.81396H10.7907C11.3247 9.81396 11.7674 10.2568 11.7674 10.7907C11.7674 11.3247 11.3247 11.7675 10.7907 11.7675Z"/>
<path d="M8.18605 15.6744H2.97674C2.44279 15.6744 2 15.2316 2 14.6977C2 14.1637 2.44279 13.7209 2.97674 13.7209H8.18605C8.72 13.7209 9.16279 14.1637 9.16279 14.6977C9.16279 15.2316 8.72 15.6744 8.18605 15.6744Z"/>
<path d="M5.5814 19.5814H2.97674C2.44279 19.5814 2 19.1386 2 18.6047C2 18.0707 2.44279 17.6279 2.97674 17.6279H5.5814C6.11535 17.6279 6.55814 18.0707 6.55814 18.6047C6.55814 19.1386 6.11535 19.5814 5.5814 19.5814Z"/>
</symbol><symbol viewBox="0 0 32 32" stroke-width="0" id="youtube" xmlns="http://www.w3.org/2000/svg">
<path d="M29.3805 8.85766L29.4155 9.08825C29.0772 7.87766 28.1637 6.94354 27.0029 6.60355L26.9784 6.59766C24.7956 6.00002 16.0118 6.00002 16.0118 6.00002C16.0118 6.00002 7.25028 5.98825 5.04531 6.59766C3.86232 6.94354 2.94767 7.87766 2.61517 9.06354L2.60934 9.08825C1.79385 13.3835 1.78801 18.5447 2.6455 23.1435L2.60934 22.9106C2.94767 24.1212 3.86115 25.0553 5.02197 25.3953L5.04647 25.4012C7.22695 26 16.013 26 16.013 26C16.013 26 24.7734 26 26.9795 25.4012C28.1637 25.0553 29.0783 24.1212 29.4108 22.9353L29.4167 22.9106C29.7877 20.9129 30 18.6141 30 16.2659C30 16.18 30 16.0929 29.9988 16.0059C30 15.9259 30 15.8306 30 15.7353C30 13.3859 29.7877 11.0871 29.3805 8.85766ZM13.2095 20.2953V11.7153L20.5198 16.0118L13.2095 20.2953Z"/>
</symbol></svg>