<svg width="26" height="16" viewBox="0 0 26 16" fill="none" xmlns="http://www.w3.org/2000/svg">
<path d="M16.4964 1.71147H9.46659V14.291H16.4964V1.71147Z" fill="#FF5F00"/>
<path d="M9.93043 8.00135C9.92933 6.78982 10.2051 5.59392 10.7369 4.50421C11.2687 3.41451 12.0426 2.45957 12.9999 1.71171C11.8146 0.784131 10.3911 0.207296 8.89207 0.0471368C7.39307 -0.113023 5.87906 0.149952 4.52307 0.80601C3.16708 1.46207 2.02384 2.48473 1.224 3.75713C0.424162 5.02952 0 6.5003 0 8.00135C0 9.50241 0.424162 10.9732 1.224 12.2456C2.02384 13.518 3.16708 14.5406 4.52307 15.1967C5.87906 15.8527 7.39307 16.1157 8.89207 15.9556C10.3911 15.7954 11.8146 15.2186 12.9999 14.291C12.0426 13.5431 11.2687 12.5882 10.7369 11.4985C10.2051 10.4088 9.92933 9.21288 9.93043 8.00135Z" fill="#EB001B"/>
<path d="M25.2328 12.9583V12.7008H25.3372V12.6484H25.0717V12.7008H25.176V12.9583H25.2328ZM25.7486 12.9583V12.648H25.6672L25.5734 12.8615L25.4799 12.648H25.3985V12.9583H25.456V12.7242L25.5435 12.926H25.6033L25.6911 12.7237V12.9583H25.7486Z" fill="#F79E1B"/>
<path d="M17.9652 0.00147443C16.1638 -0.00130638 14.4145 0.601285 12.9999 1.71171C13.9564 2.46031 14.7294 3.41541 15.2612 4.50494C15.7929 5.59448 16.0692 6.79001 16.0692 8.00136C16.0692 9.21271 15.7929 10.4082 15.2612 11.4978C14.7294 12.5873 13.9564 13.5424 12.9999 14.291C14.0069 15.0791 15.1883 15.6161 16.446 15.8572C17.7038 16.0983 19.0012 16.0365 20.2301 15.677C21.459 15.3175 22.5837 14.6708 23.5106 13.7906C24.4375 12.9104 25.1396 11.8224 25.5584 10.6172C25.9772 9.41202 26.1005 8.12463 25.9181 6.86234C25.7357 5.60006 25.2529 4.39948 24.5099 3.36071C23.7669 2.32193 22.7852 1.47507 21.6468 0.890723C20.5083 0.306379 19.246 0.00148832 17.9652 0.00147443Z" fill="#F79E1B"/>
</svg>
