<svg width="150" height="54" viewBox="0 0 150 54" fill="none" xmlns="http://www.w3.org/2000/svg">
<g clip-path="url(#clip0_3901_4899)">
<path fill-rule="evenodd" clip-rule="evenodd" d="M65.6626 9.16052C65.6626 9.16052 65.6626 9.16052 68.8176 9.16052C69.9672 9.16052 70.5463 9.73305 70.5463 11.0256C70.5463 11.0256 70.5463 11.0256 70.5463 15.6058C70.5463 15.6058 70.5463 15.6058 76.7266 15.6058C76.7266 15.6058 76.7266 15.6058 76.7266 11.0256C76.7266 9.73305 77.2971 9.16052 78.5937 9.16052C78.5937 9.16052 78.5937 9.16052 81.6104 9.16052C81.6104 9.16052 81.6104 9.16052 81.6104 12.1706C81.6104 12.1706 81.6104 12.1706 80.3225 12.1706L80.1755 12.3181C80.1755 12.3181 80.1755 12.3181 80.1755 25.2087C80.1755 25.2087 80.1755 25.2087 76.7266 25.2087C76.7266 25.2087 76.7266 25.2087 76.7266 18.7634C76.7266 18.7634 76.7266 18.7634 70.5463 18.7634C70.5463 18.7634 70.5463 18.7634 70.5463 25.2087C70.5463 25.2087 70.5463 25.2087 67.0975 25.2087C67.0975 25.2087 67.0975 25.2087 67.0975 12.3181C67.0975 12.3181 67.0975 12.1706 66.9505 12.1706C66.9505 12.1706 66.9505 12.1706 65.6626 12.1706C65.6626 12.1706 65.6626 12.1706 65.6626 9.16052Z" fill="#ED1C24"/>
<path fill-rule="evenodd" clip-rule="evenodd" d="M90.6602 8.87427L90.738 8.88294V12.188L90.6602 12.1707C88.0758 12.1707 86.0618 14.322 86.0618 17.0458C86.0618 19.9085 88.0758 22.1986 90.6602 22.1986L90.738 22.1813V25.4863L90.6602 25.495C86.0618 25.495 82.3276 21.7735 82.3276 17.0458C82.3276 12.4569 86.0618 8.87427 90.6602 8.87427Z" fill="#ED1C24"/>
<path fill-rule="evenodd" clip-rule="evenodd" d="M90.7383 8.88293L92.3374 9.03908C96.132 9.78511 98.9931 13.0294 98.9931 17.0458C98.9931 21.175 96.132 24.5494 92.3374 25.3215L90.7383 25.4863V22.1813L92.493 21.7996C94.1872 21.0188 95.4059 19.1885 95.4059 17.0458C95.4059 14.9986 94.1872 13.281 92.493 12.5523L90.7383 12.188V8.88293Z" fill="#ED1C24"/>
<path fill-rule="evenodd" clip-rule="evenodd" d="M99.7104 9.16052C99.7104 9.16052 99.7105 9.16052 104.525 9.16052H106.824V12.1706H106.608C106.323 12.1706 105.744 12.1706 104.594 12.1706C104.594 12.1706 104.594 12.1706 104.594 15.467C104.594 15.467 104.594 15.467 105.571 15.467H106.824V18.3297H106.09C105.727 18.3297 105.242 18.3297 104.594 18.3297C104.594 18.3297 104.594 18.3297 104.594 21.9123C104.594 22.0598 104.594 22.0598 104.741 22.0598C104.741 22.0598 104.741 22.0598 105.77 22.0598H106.824V25.2087H106.522C106.003 25.2087 104.957 25.2087 102.874 25.2087C101.724 25.2087 101.154 24.6362 101.154 23.3437V12.1706C101.154 12.1706 101.154 12.1706 99.7104 12.1706C99.7104 12.1706 99.7104 12.1706 99.7104 9.16052Z" fill="#ED1C24"/>
<path fill-rule="evenodd" clip-rule="evenodd" d="M106.824 9.16052H106.893C110.057 9.16052 111.924 10.8781 111.924 13.4632C111.924 15.0333 111.207 16.0396 110.489 16.7596C111.786 17.3321 112.641 18.7634 112.641 20.3335C112.641 23.3437 110.342 25.2087 107.04 25.2087C107.04 25.2087 107.04 25.2087 106.98 25.2087H106.824V22.0598H107.179C108.328 22.0598 109.054 21.3398 109.054 20.1947C109.054 19.0497 108.328 18.3297 107.179 18.3297C107.179 18.3297 107.179 18.3297 106.859 18.3297H106.824V15.467H106.893C107.905 15.467 108.475 14.747 108.475 13.7494C108.475 12.7432 107.905 12.1706 106.893 12.1706C106.893 12.1706 106.893 12.1706 106.859 12.1706H106.824V9.16052Z" fill="#ED1C24"/>
<path fill-rule="evenodd" clip-rule="evenodd" d="M119.254 9.16052C119.254 9.16052 119.254 9.16052 120.706 9.16052H120.974V13.7494C120.836 14.0357 120.689 14.4608 120.689 14.8945C120.689 14.8945 120.689 14.8945 119.539 18.1909C119.539 18.1909 119.539 18.1909 120.758 18.1909H120.974V21.1923H120.196C119.755 21.1923 119.254 21.1923 118.683 21.1923C118.683 21.1923 118.683 21.1923 117.672 23.7774C117.387 24.775 116.816 25.2087 115.667 25.2087C115.667 25.2087 115.667 25.2087 113.506 25.2087C113.506 25.2087 113.506 25.2087 113.506 22.0598C113.506 22.0598 113.506 22.0598 114.223 22.0598C114.517 22.0598 114.517 22.0598 114.655 21.9123C114.655 21.9123 114.655 21.9123 119.254 9.16052Z" fill="#ED1C24"/>
<path fill-rule="evenodd" clip-rule="evenodd" d="M120.974 9.16052H122.703C122.703 9.16052 122.703 9.16052 127.301 21.9123C127.44 22.0598 127.44 22.0598 127.725 22.0598C127.725 22.0598 127.725 22.0598 128.304 22.0598C128.304 22.0598 128.304 22.0598 128.304 25.2087C128.304 25.2087 128.304 25.2087 126.29 25.2087C125.14 25.2087 124.57 24.775 124.276 23.6299C124.276 23.6299 124.276 23.6299 123.273 21.1923C123.273 21.1923 123.273 21.1923 121.337 21.1923H120.974V18.1909H122.409C122.409 18.1909 122.409 18.1909 121.268 14.8945C121.268 14.4608 121.121 14.0357 120.974 13.7494V9.16052Z" fill="#ED1C24"/>
<path fill-rule="evenodd" clip-rule="evenodd" d="M65.6626 29.7889C65.6626 29.7889 65.6626 29.7889 78.1615 29.7889C79.3111 29.7889 80.0286 30.3615 80.0286 31.654C80.0286 31.654 80.0286 31.654 80.0286 42.5407C80.0286 42.6795 80.0286 42.6795 80.1755 42.6795C80.1755 42.6795 80.1755 42.6795 81.3251 42.6795C81.3251 42.6795 81.3251 42.6795 81.3251 45.8371C81.3251 45.8371 81.3251 45.8371 78.3085 45.8371C77.0119 45.8371 76.4414 45.2646 76.4414 43.9721C76.4414 43.9721 76.4414 43.9721 76.4414 32.9465C76.4414 32.9465 76.4414 32.7991 76.2945 32.7991C76.2945 32.7991 76.2945 32.7991 70.5463 32.7991C70.5463 32.7991 70.5463 32.7991 70.5463 45.8371C70.5463 45.8371 70.5463 45.8371 67.0975 45.8371C67.0975 45.8371 67.0975 45.8371 67.0975 32.7991C67.0975 32.7991 67.0975 32.7991 65.6626 32.7991C65.6626 32.7991 65.6626 32.7991 65.6626 29.7889Z" fill="#ED1C24"/>
<path fill-rule="evenodd" clip-rule="evenodd" d="M90.375 29.5027L90.4441 29.5114V32.8164L90.375 32.7991C87.7818 32.7991 85.7765 34.9504 85.7765 37.6743C85.7765 40.5369 87.7818 42.827 90.375 42.827L90.4441 42.8097V46.1147L90.375 46.1234C85.7765 46.1234 82.1807 42.3933 82.1807 37.6743C82.1807 33.0853 85.7765 29.5027 90.375 29.5027Z" fill="#ED1C24"/>
<path fill-rule="evenodd" clip-rule="evenodd" d="M90.4443 29.5114L92.0953 29.6675C95.9591 30.4135 98.7078 33.6579 98.7078 37.6742C98.7078 41.8034 95.9591 45.1779 92.0953 45.9499L90.4443 46.1147V42.8097L92.2682 42.428C93.9883 41.6473 95.1206 39.8169 95.1206 37.6742C95.1206 35.627 93.9883 33.9094 92.2682 33.1808L90.4443 32.8164V29.5114Z" fill="#ED1C24"/>
<path fill-rule="evenodd" clip-rule="evenodd" d="M99.4253 29.7889C99.4253 29.7889 99.4253 29.7889 102.589 29.7889C103.739 29.7889 104.309 30.3615 104.309 31.654C104.309 31.654 104.309 31.654 104.309 42.5407C104.309 42.6795 104.309 42.6795 104.456 42.6795C104.456 42.6795 104.456 42.6795 108.622 42.6795C108.622 42.6795 108.622 42.6795 108.622 29.7889C108.622 29.7889 108.622 29.7889 112.071 29.7889C112.071 29.7889 112.071 29.7889 112.071 42.6795C112.071 42.6795 112.071 42.6795 116.237 42.6795C116.384 42.6795 116.384 42.6795 116.384 42.5407C116.384 42.5407 116.384 42.5407 116.384 31.654C116.384 30.3615 116.955 29.7889 118.105 29.7889C118.105 29.7889 118.105 29.7889 121.268 29.7889C121.268 29.7889 121.268 29.7889 121.268 32.7991C121.268 32.7991 121.268 32.7991 119.972 32.7991C119.825 32.7991 119.825 32.9465 119.825 32.9465C119.825 32.9465 119.825 32.9465 119.825 43.9721C119.825 45.2646 119.254 45.8371 118.105 45.8371C118.105 45.8371 118.105 45.8371 102.727 45.8371C101.439 45.8371 100.86 45.2646 100.86 43.9721C100.86 43.9721 100.86 43.9721 100.86 32.9465C100.86 32.9465 100.86 32.7991 100.722 32.7991C100.722 32.7991 100.722 32.7991 99.4253 32.7991C99.4253 32.7991 99.4253 32.7991 99.4253 29.7889Z" fill="#ED1C24"/>
<path fill-rule="evenodd" clip-rule="evenodd" d="M123.991 29.7889C123.991 29.7889 123.991 29.7889 134.77 29.7889C136.066 29.7889 136.499 30.3615 136.499 31.5065C136.499 31.5065 136.499 31.5065 136.499 34.2304H133.335C133.335 34.2304 133.335 34.2304 133.335 32.9465C133.335 32.7991 133.335 32.7991 133.188 32.7991C133.188 32.7991 133.188 32.7991 131.183 32.7991C131.183 32.7991 131.183 32.7991 131.183 45.8371C131.183 45.8371 131.183 45.8371 127.725 45.8371C127.725 45.8371 127.725 45.8371 127.725 32.7991C127.725 32.7991 127.725 32.7991 125.72 32.7991C125.573 32.7991 125.573 32.7991 125.573 32.9465C125.573 32.9465 125.573 32.9465 125.573 34.2304C125.573 34.2304 125.573 34.2304 122.409 34.2304C122.409 34.2304 122.409 34.2304 122.409 31.5065C122.409 30.3615 122.841 29.7889 123.991 29.7889Z" fill="#ED1C24"/>
<path fill-rule="evenodd" clip-rule="evenodd" d="M140.95 29.7889C140.95 29.7889 140.95 29.7889 142.402 29.7889H142.67V34.3779C142.523 34.6641 142.385 35.0892 142.385 35.5229C142.385 35.5229 142.385 35.5229 141.235 38.8193C141.235 38.8193 141.235 38.8193 142.445 38.8193H142.67V41.8207H141.892C141.451 41.8207 140.95 41.8207 140.371 41.8207C140.371 41.8207 140.371 41.8207 139.368 44.2583C139.083 45.4034 138.504 45.8371 137.354 45.8371C137.354 45.8371 137.354 45.8371 135.202 45.8371C135.202 45.8371 135.202 45.8371 135.202 42.6795C135.202 42.6795 135.202 42.6795 135.919 42.6795C136.213 42.6795 136.213 42.6795 136.351 42.5407C136.351 42.5407 136.351 42.5407 140.95 29.7889Z" fill="#ED1C24"/>
<path fill-rule="evenodd" clip-rule="evenodd" d="M142.67 29.7889H144.39C144.39 29.7889 144.39 29.7889 148.997 42.5407C149.135 42.6795 149.135 42.6795 149.429 42.6795H150C150 42.6795 150 42.6795 150 45.8371C150 45.8371 150 45.8371 147.986 45.8371C146.836 45.8371 146.266 45.4034 145.972 44.2583C145.972 44.2583 145.972 44.2583 144.969 41.8207C144.969 41.8207 144.969 41.8207 143.033 41.8207H142.67V38.8193H144.105C144.105 38.8193 144.105 38.8193 142.955 35.5229C142.955 35.0892 142.817 34.6641 142.67 34.3779V29.7889Z" fill="#ED1C24"/>
<path fill-rule="evenodd" clip-rule="evenodd" d="M43.517 15.9875C43.6812 15.9355 43.8973 16.0396 44.1134 16.3258C44.1134 16.3258 44.1134 16.3258 53.8809 25.92C54.4514 26.4926 54.4514 27.36 53.8809 27.7851C53.8809 27.7851 53.8809 27.7851 44.1134 37.5268C43.8973 37.813 43.6812 37.8824 43.517 37.7957C43.3527 37.7089 43.249 37.4574 43.249 37.093V16.6121C43.249 16.2564 43.3527 16.0396 43.517 15.9875Z" fill="#ED1C24"/>
<path fill-rule="evenodd" clip-rule="evenodd" d="M26.8088 0H27.5003L28.1659 0.277591C28.1659 0.277591 28.1659 0.277591 38.2186 10.3055C38.6508 10.8781 38.5038 11.3118 37.7864 11.3118C37.7864 11.3118 37.7864 11.3118 33.6201 11.3118C32.9027 11.3118 32.3322 11.8843 32.3322 12.6043C32.3322 12.6043 32.3322 12.6043 32.3322 20.0472C32.3322 20.7672 31.753 21.3398 30.8887 21.3398C30.8887 21.3398 30.8887 21.3398 23.5674 21.3398C22.8499 21.3398 22.2708 20.7672 22.2708 20.0472C22.2708 20.0472 22.2708 20.0472 22.2708 12.6043C22.2708 11.8843 21.7003 11.3118 20.9742 11.3118H16.5227C15.8052 11.3118 15.6583 10.8781 16.0905 10.3055C16.0905 10.3055 16.0905 10.3055 26.1519 0.277591L26.8088 0Z" fill="#ED1C24"/>
<path fill-rule="evenodd" clip-rule="evenodd" d="M11.0597 15.7707C11.2412 15.8574 11.3536 16.109 11.3536 16.4733V37.3793C11.3536 37.7437 11.2412 37.9605 11.0597 38.0299C10.8869 38.0993 10.6362 38.0299 10.3423 37.8131C10.3423 37.8131 10.3423 37.8131 0.427868 27.7851C-0.142623 27.3601 -0.142623 26.4926 0.427868 25.9201C0.427868 25.9201 0.427869 25.9201 10.3423 16.0396C10.6362 15.7533 10.8869 15.6839 11.0597 15.7707Z" fill="#ED1C24"/>
<path fill-rule="evenodd" clip-rule="evenodd" d="M23.5674 32.2266C23.5674 32.2266 23.5674 32.2266 30.8887 32.2266C31.7531 32.2266 32.3322 32.7991 32.3322 33.5191C32.3322 33.5191 32.3322 33.5191 32.3322 41.3957C32.3322 42.2545 32.9027 42.827 33.6202 42.827H37.5012C38.2187 42.827 38.5039 43.2521 37.9334 43.6858C37.9334 43.6858 37.9334 43.6858 28.1659 53.5663C27.872 53.8526 27.5176 54.0001 27.1546 54.0001C26.8002 54.0001 26.4372 53.8526 26.1519 53.5663C26.1519 53.5663 26.1519 53.5663 16.3844 43.6858C15.8053 43.2521 16.0905 42.827 16.808 42.827C16.808 42.827 16.808 42.827 20.9743 42.827C21.7004 42.827 22.2709 42.2545 22.2709 41.3957C22.2709 41.3957 22.2709 41.3957 22.2709 33.5191C22.2709 32.7991 22.85 32.2266 23.5674 32.2266Z" fill="#ED1C24"/>
</g>
<defs>
<clipPath id="clip0_3901_4899">
<rect width="150" height="54" fill="white"/>
</clipPath>
</defs>
</svg>
