<svg width="36" height="12" viewBox="0 0 36 12" fill="none" xmlns="http://www.w3.org/2000/svg">
<path fill-rule="evenodd" clip-rule="evenodd" d="M9.25063 11.9097H6.22151L3.95004 2.60047C3.84222 2.17225 3.6133 1.79367 3.27657 1.61524C2.43621 1.16685 1.5102 0.809992 0.5 0.630013V0.271606H5.37967C6.05314 0.271606 6.55824 0.809992 6.64242 1.43526L7.82099 8.15034L10.8486 0.271606H13.7936L9.25063 11.9097ZM15.4767 11.9097H12.616L14.9716 0.271606H17.8324L15.4767 11.9097ZM21.5348 3.49399C21.619 2.86717 22.1241 2.50876 22.7133 2.50876C23.6393 2.41877 24.6481 2.59875 25.4899 3.04559L25.995 0.53985C25.1532 0.181444 24.2272 0.00146484 23.3868 0.00146484C20.6102 0.00146484 18.5898 1.61352 18.5898 3.85084C18.5898 5.55289 20.0209 6.44657 21.0311 6.98496C22.1241 7.52179 22.545 7.8802 22.4608 8.41704C22.4608 9.22229 21.6189 9.58069 20.7786 9.58069C19.7684 9.58069 18.7582 9.31228 17.8337 8.86388L17.3286 11.3712C18.3388 11.818 19.4317 11.998 20.4419 11.998C23.5552 12.0864 25.4899 10.4759 25.4899 8.05863C25.4899 5.0145 21.5348 4.83607 21.5348 3.49399ZM35.4999 11.9097L33.2284 0.271606H30.7886C30.2835 0.271606 29.7784 0.630013 29.61 1.16685L25.4038 11.9097H28.3487L28.9366 10.2092H32.555L32.8917 11.9097H35.4999ZM31.2099 3.40442L32.0502 7.79063H29.6946L31.2099 3.40442Z" fill="#172B85"/>
</svg>
