<svg width="124" height="14" viewBox="0 0 124 14" fill="none" xmlns="http://www.w3.org/2000/svg">
<path d="M7.91543 0.0190088H12.127C12.3878 0.0190088 12.5709 0.0633628 12.6763 0.152071C12.7873 0.234442 12.8428 0.380176 12.8428 0.589274C12.8428 0.855397 12.6985 1.05816 12.41 1.19756C12.3323 1.23557 12.2768 1.26409 12.2435 1.2831C12.1214 1.34646 12.0382 1.42249 11.9938 1.5112C11.955 1.59991 11.9356 1.77099 11.9356 2.02444V11.795C11.9356 12.0104 11.955 12.1625 11.9938 12.2512C12.0382 12.3399 12.1214 12.4223 12.2435 12.4983C12.2768 12.5173 12.3323 12.5458 12.41 12.5838C12.6985 12.7232 12.8428 12.9292 12.8428 13.2016C12.8428 13.4044 12.7873 13.5501 12.6763 13.6388C12.5709 13.7212 12.3878 13.7624 12.127 13.7624H7.72399C7.45765 13.7624 7.26898 13.718 7.15801 13.6293C7.04703 13.5406 6.99154 13.3981 6.99154 13.2016C6.99154 12.9292 7.13581 12.7232 7.42435 12.5838C7.50204 12.5458 7.55752 12.5173 7.59082 12.4983C7.71844 12.4223 7.80445 12.3367 7.84884 12.2417C7.89323 12.1403 7.91543 11.9407 7.91543 11.6429V0.0190088ZM5.31857 13.7624H4.7942L1.4316 2.38561C1.41496 2.32858 1.38999 2.24304 1.35669 2.12899C1.21242 1.60941 1.02376 1.28943 0.79071 1.16904C0.718575 1.13103 0.610373 1.09301 0.466103 1.05499C0.155368 0.972618 0 0.795202 0 0.522743C0 0.345327 0.0471652 0.218601 0.141496 0.142566C0.241375 0.0601946 0.410614 0.0190088 0.649215 0.0190088H4.87743L6.48382 5.45553L7.38274 1.98642V5.8167L5.31857 13.7624ZM1.39831 3.91582L2.37213 7.20434V10.5689C2.37213 10.9301 2.40542 11.2342 2.47201 11.4813C2.5386 11.7284 2.64125 11.9312 2.77997 12.0896C2.8854 12.21 3.07683 12.3589 3.35428 12.5363C3.63172 12.7074 3.77044 12.907 3.77044 13.1351C3.77044 13.3505 3.71218 13.5089 3.59565 13.6103C3.48467 13.7117 3.30434 13.7624 3.05464 13.7624H0.715801C0.471652 13.7624 0.291314 13.7117 0.174789 13.6103C0.0582629 13.5089 0 13.3505 0 13.1351C0 12.907 0.141496 12.7074 0.424487 12.5363C0.707478 12.3589 0.901687 12.21 1.00712 12.0896C1.15139 11.9249 1.25126 11.7221 1.30675 11.4813C1.36779 11.2406 1.39831 10.7938 1.39831 10.1412V3.91582Z" fill="#1A1A1A"/>
<path d="M18.9604 0.0190088C19.2212 0.0190088 19.4071 0.0633628 19.5181 0.152071C19.6346 0.240778 19.6928 0.386513 19.6928 0.589274C19.6928 0.855397 19.5486 1.05816 19.26 1.19756C19.1824 1.23557 19.1269 1.26409 19.0936 1.2831C18.9659 1.35913 18.8799 1.44784 18.8355 1.54922C18.7912 1.64426 18.769 1.84069 18.769 2.13849V11.6809C18.769 11.9407 18.7856 12.115 18.8189 12.2037C18.8522 12.2924 18.9132 12.3684 19.002 12.4318C19.0464 12.4635 19.1158 12.5015 19.2101 12.5458C19.5319 12.7042 19.6928 12.9228 19.6928 13.2016C19.6928 13.3981 19.6346 13.5406 19.5181 13.6293C19.4071 13.718 19.2212 13.7624 18.9604 13.7624H14.5574C14.2966 13.7624 14.1107 13.7212 13.9997 13.6388C13.8943 13.5501 13.8416 13.4044 13.8416 13.2016C13.8416 12.9292 13.9859 12.7201 14.2744 12.5743C14.341 12.5427 14.3909 12.5173 14.4242 12.4983C14.5518 12.4223 14.6378 12.3367 14.6822 12.2417C14.7266 12.1403 14.7488 11.9407 14.7488 11.6429V2.13849C14.7488 1.84069 14.7266 1.64426 14.6822 1.54922C14.6378 1.44784 14.5518 1.35913 14.4242 1.2831C14.3909 1.26409 14.341 1.23874 14.2744 1.20706C13.9859 1.06133 13.8416 0.855397 13.8416 0.589274C13.8416 0.380176 13.8943 0.234442 13.9997 0.152071C14.1107 0.0633628 14.2966 0.0190088 14.5574 0.0190088H18.9604Z" fill="#1A1A1A"/>
<path d="M26.0768 13.7624V12.4983C26.5595 12.4666 26.984 12.3114 27.3503 12.0326C27.7165 11.7475 28.0078 11.3514 28.2242 10.8445C28.3296 10.5847 28.4378 10.2394 28.5488 9.80855C28.6986 9.23829 28.8845 8.95316 29.1065 8.95316C29.3173 8.95316 29.4616 9.04503 29.5393 9.22878C29.617 9.4062 29.6558 9.8339 29.6558 10.5119V13.7624H26.0768ZM21.3492 13.7624C21.0884 13.7624 20.9025 13.7212 20.7915 13.6388C20.6861 13.5501 20.6334 13.4044 20.6334 13.2016C20.6334 12.9292 20.7776 12.7201 21.0662 12.5743C21.1328 12.5427 21.1827 12.5173 21.216 12.4983C21.3436 12.4223 21.4296 12.3367 21.474 12.2417C21.5184 12.1403 21.5406 11.9407 21.5406 11.6429V2.13849C21.5406 1.84069 21.5184 1.64426 21.474 1.54922C21.4296 1.44784 21.3436 1.35913 21.216 1.2831C21.1827 1.26409 21.1328 1.23874 21.0662 1.20706C20.7776 1.06133 20.6334 0.855397 20.6334 0.589274C20.6334 0.380176 20.6861 0.234442 20.7915 0.152071C20.9025 0.0633628 21.0884 0.0190088 21.3492 0.0190088H25.7522C26.013 0.0190088 26.1961 0.0633628 26.3015 0.152071C26.4125 0.234442 26.468 0.380176 26.468 0.589274C26.468 0.855397 26.3237 1.06133 26.0352 1.20706C25.9686 1.23874 25.9186 1.26409 25.8854 1.2831C25.7577 1.35913 25.6717 1.44784 25.6273 1.54922C25.5829 1.64426 25.5607 1.84069 25.5607 2.13849V13.7624H21.3492Z" fill="#1A1A1A"/>
<path d="M36.2561 0.0190088C36.5169 0.0190088 36.7028 0.0633628 36.8138 0.152071C36.9303 0.240778 36.9886 0.386513 36.9886 0.589274C36.9886 0.855397 36.8443 1.05816 36.5558 1.19756C36.4781 1.23557 36.4226 1.26409 36.3893 1.2831C36.2617 1.35913 36.1757 1.44784 36.1313 1.54922C36.0869 1.64426 36.0647 1.84069 36.0647 2.13849V11.6809C36.0647 11.9407 36.0814 12.115 36.1146 12.2037C36.1479 12.2924 36.209 12.3684 36.2978 12.4318C36.3422 12.4635 36.4115 12.5015 36.5058 12.5458C36.8277 12.7042 36.9886 12.9228 36.9886 13.2016C36.9886 13.3981 36.9303 13.5406 36.8138 13.6293C36.7028 13.718 36.5169 13.7624 36.2561 13.7624H31.8531C31.5923 13.7624 31.4065 13.7212 31.2955 13.6388C31.1901 13.5501 31.1373 13.4044 31.1373 13.2016C31.1373 12.9292 31.2816 12.7201 31.5701 12.5743C31.6367 12.5427 31.6867 12.5173 31.72 12.4983C31.8476 12.4223 31.9336 12.3367 31.978 12.2417C32.0224 12.1403 32.0446 11.9407 32.0446 11.6429V2.13849C32.0446 1.84069 32.0224 1.64426 31.978 1.54922C31.9336 1.44784 31.8476 1.35913 31.72 1.2831C31.6867 1.26409 31.6367 1.23874 31.5701 1.20706C31.2816 1.06133 31.1373 0.855397 31.1373 0.589274C31.1373 0.380176 31.1901 0.234442 31.2955 0.152071C31.4065 0.0633628 31.5923 0.0190088 31.8531 0.0190088H36.2561Z" fill="#1A1A1A"/>
<path d="M45.1787 0.0190088V11.871C45.1787 12.1752 45.3451 12.4001 45.6781 12.5458C45.6836 12.5458 45.692 12.549 45.703 12.5553C45.9195 12.6377 46.0637 12.7296 46.1359 12.831C46.2135 12.926 46.2524 13.0559 46.2524 13.2206C46.2524 13.4234 46.1913 13.566 46.0693 13.6483C45.9527 13.7244 45.728 13.7624 45.3951 13.7624H40.9172C40.5842 13.7624 40.3567 13.7244 40.2347 13.6483C40.1181 13.566 40.0599 13.4234 40.0599 13.2206C40.0599 12.9292 40.2541 12.6979 40.6425 12.5268C40.6924 12.5078 40.7313 12.492 40.759 12.4793C40.9144 12.4096 41.0143 12.3367 41.0587 12.2607C41.1086 12.1783 41.1336 12.0041 41.1336 11.7379V0.0190088H45.1787ZM48.1085 0.0190088V4.12492C48.1085 4.34035 48.053 4.5146 47.942 4.64766C47.831 4.78072 47.6868 4.84725 47.5092 4.84725C47.1541 4.84725 46.9377 4.53994 46.86 3.92532C46.8378 3.74157 46.8156 3.599 46.7934 3.49762C46.6769 2.90835 46.5243 2.42996 46.3356 2.06246C46.1525 1.69495 45.9361 1.44784 45.6864 1.32111V0.0190088H48.1085ZM38.054 0.0190088H40.4677V1.32111C40.2236 1.44784 40.0072 1.69495 39.8185 2.06246C39.6354 2.42996 39.4828 2.91152 39.3607 3.50713C39.3441 3.60217 39.3247 3.74157 39.3025 3.92532C39.2192 4.53994 39 4.84725 38.6449 4.84725C38.4341 4.84725 38.2815 4.77438 38.1871 4.62865C38.0984 4.48291 38.054 4.21045 38.054 3.81127V0.0190088Z" fill="#1A1A1A"/>
<path d="M53.8016 10.3408H51.2963L51.6375 8.93415H53.5103L51.8373 1.16904L52.1286 0.0190088H55.7243L58.2296 11.6144C58.2462 11.6841 58.2656 11.7633 58.2878 11.852C58.31 11.9407 58.3211 11.9946 58.3211 12.0136C58.3211 12.2037 58.4737 12.3811 58.7789 12.5458C59.0841 12.7106 59.2367 12.9165 59.2367 13.1636C59.2367 13.3917 59.1701 13.5501 59.0369 13.6388C58.9093 13.7212 58.6513 13.7624 58.2629 13.7624H54.3759C54.0263 13.7624 53.7794 13.7149 53.6351 13.6198C53.4964 13.5184 53.427 13.3505 53.427 13.1161C53.427 12.9007 53.5463 12.7137 53.7849 12.5553C54.0235 12.3969 54.1428 12.2163 54.1428 12.0136C54.1428 11.9882 54.1373 11.947 54.1262 11.89C54.1206 11.8267 54.1095 11.7506 54.0929 11.6619L53.8016 10.3408ZM52.0787 4.59063L50.5971 10.9396C50.5694 11.041 50.5472 11.1423 50.5305 11.2437C50.5194 11.3388 50.5139 11.4306 50.5139 11.5193C50.5139 11.7284 50.5555 11.909 50.6387 12.0611C50.722 12.2132 50.8413 12.3304 50.9966 12.4128C51.0577 12.4508 51.1326 12.492 51.2214 12.5363C51.5099 12.6821 51.6542 12.8912 51.6542 13.1636C51.6542 13.3664 51.5876 13.5184 51.4544 13.6198C51.3213 13.7149 51.1076 13.7624 50.8135 13.7624H48.7244C48.4192 13.7624 48.2084 13.7212 48.0918 13.6388C47.9753 13.5501 47.917 13.3981 47.917 13.1826C47.917 12.8912 48.0891 12.6821 48.4331 12.5553C48.5718 12.5046 48.6717 12.4603 48.7327 12.4223C48.9269 12.2955 49.0851 12.1245 49.2071 11.909C49.3292 11.6873 49.4402 11.3704 49.5401 10.9586L51.5876 2.26205L52.0787 4.59063Z" fill="#1A1A1A"/>
<path d="M65.3376 13.7624H60.9346C60.6738 13.7624 60.4879 13.7212 60.377 13.6388C60.2715 13.5501 60.2188 13.4044 60.2188 13.2016C60.2188 12.9292 60.3631 12.7201 60.6516 12.5743C60.7182 12.5427 60.7682 12.5173 60.8015 12.4983C60.9291 12.4223 61.0151 12.3367 61.0595 12.2417C61.1039 12.1403 61.1261 11.9407 61.1261 11.6429V2.13849C61.1261 1.84069 61.1039 1.64426 61.0595 1.54922C61.0151 1.44784 60.9291 1.35913 60.8015 1.2831C60.7682 1.26409 60.7182 1.23874 60.6516 1.20706C60.3631 1.06133 60.2188 0.855397 60.2188 0.589274C60.2188 0.380176 60.2715 0.234442 60.377 0.152071C60.4879 0.0633628 60.6738 0.0190088 60.9346 0.0190088H65.1462V11.795C65.1462 11.9977 65.1684 12.1466 65.2128 12.2417C65.2572 12.3304 65.3432 12.4159 65.4708 12.4983C65.5041 12.5173 65.554 12.5427 65.6206 12.5743C65.9092 12.7201 66.0534 12.9292 66.0534 13.2016C66.0534 13.4044 65.9979 13.5501 65.887 13.6388C65.7815 13.7212 65.5984 13.7624 65.3376 13.7624ZM65.6622 6.42498C66.0396 6.3933 66.3115 6.2444 66.4779 5.97828C66.6499 5.70582 66.7359 5.27812 66.7359 4.69518V2.91785C66.7359 2.33492 66.6499 1.91039 66.4779 1.64426C66.3115 1.3718 66.0396 1.21973 65.6622 1.18805V0.0190088C65.7399 0.0126725 65.8204 0.00950441 65.9036 0.00950441C65.9924 0.00316814 66.12 0 66.2865 0C67.7736 0 68.8695 0.2883 69.5742 0.864902C70.2844 1.43517 70.6395 2.32224 70.6395 3.52614C70.6395 4.49559 70.3954 5.25594 69.9071 5.8072C69.4188 6.35845 68.678 6.71328 67.6848 6.87169C68.6891 6.97941 69.4382 7.25187 69.9321 7.68907C70.4259 8.12627 70.6728 8.73772 70.6728 9.52342V11.2722C70.6728 11.399 70.6867 11.494 70.7145 11.5574C70.7422 11.6144 70.7838 11.6429 70.8393 11.6429C70.8948 11.6429 70.9864 11.551 71.114 11.3673C71.2472 11.1835 71.3831 11.0916 71.5218 11.0916C71.6605 11.0916 71.7854 11.155 71.8964 11.2817C72.0129 11.4085 72.0712 11.5542 72.0712 11.7189C72.0712 12.2322 71.8104 12.7232 71.2888 13.1921C70.7727 13.661 70.1457 13.8955 69.4077 13.8955C68.5199 13.8955 67.8624 13.623 67.4351 13.0781C67.0134 12.5268 66.8025 11.6778 66.8025 10.5309V9.34284C66.8025 8.79158 66.7137 8.38289 66.5362 8.11677C66.3642 7.84431 66.0729 7.67006 65.6622 7.59403V6.42498Z" fill="#1A1A1A"/>
<path d="M74.8012 8.1928L72.479 1.98642C72.4679 1.95474 72.4512 1.91356 72.4291 1.86286C72.3125 1.53971 72.1183 1.30844 71.8464 1.16904C71.7077 1.09934 71.6134 1.02648 71.5634 0.950441C71.5135 0.86807 71.4885 0.760353 71.4885 0.627291C71.4885 0.392849 71.5523 0.234442 71.68 0.152071C71.8131 0.0633628 72.0739 0.0190088 72.4623 0.0190088H76.3493C76.7044 0.0190088 76.9514 0.069699 77.0901 0.171079C77.2344 0.27246 77.3065 0.443539 77.3065 0.684318C77.3065 0.874406 77.2149 1.03598 77.0318 1.16904C76.8487 1.29577 76.7571 1.41933 76.7571 1.53971C76.7571 1.60941 76.7655 1.68862 76.7821 1.77733C76.8043 1.86603 76.8376 1.96425 76.882 2.07196L78.8713 7.28038V11.871C78.8713 12.0548 78.9046 12.1942 78.9711 12.2892C79.0377 12.3779 79.1543 12.4476 79.3207 12.4983C79.576 12.568 79.7424 12.6535 79.8201 12.7549C79.9033 12.8563 79.945 13.0115 79.945 13.2206C79.945 13.4234 79.8839 13.566 79.7618 13.6483C79.6453 13.7244 79.4234 13.7624 79.096 13.7624H74.5765C74.2435 13.7624 74.0188 13.7244 73.9023 13.6483C73.7857 13.566 73.7275 13.4234 73.7275 13.2206C73.7275 12.8848 73.9023 12.6567 74.2518 12.5363C74.3295 12.511 74.385 12.492 74.4183 12.4793C74.5681 12.4223 74.668 12.3494 74.7179 12.2607C74.7734 12.172 74.8012 11.9914 74.8012 11.7189V8.1928ZM79.1626 6.57705L78.6881 5.36999L79.637 2.84182C79.6703 2.74678 79.6953 2.64856 79.7119 2.54718C79.7341 2.43947 79.7452 2.33809 79.7452 2.24304C79.7452 2.04028 79.7008 1.86603 79.612 1.7203C79.5288 1.56823 79.4067 1.44784 79.2458 1.35913C79.2014 1.34012 79.1376 1.30844 79.0544 1.26409C78.7492 1.11835 78.5966 0.906087 78.5966 0.627291C78.5966 0.411858 78.6604 0.256619 78.788 0.161575C78.9212 0.0665309 79.1321 0.0190088 79.4206 0.0190088H81.5347C81.8343 0.0190088 82.0424 0.0633628 82.159 0.152071C82.2755 0.234442 82.3337 0.386513 82.3337 0.608282C82.3337 0.893415 82.1617 1.09934 81.8177 1.22607C81.679 1.27676 81.5791 1.32111 81.5181 1.35913C81.3294 1.48586 81.1602 1.66327 81.0103 1.89138C80.8605 2.11948 80.7107 2.4363 80.5609 2.84182L79.1626 6.57705Z" fill="#1A1A1A"/>
<path d="M93.9946 6.0353H95.3347V1.9294C95.3347 1.72663 95.3208 1.57773 95.2931 1.48269C95.2653 1.38131 95.2182 1.29577 95.1516 1.22607C95.1183 1.19439 95.0711 1.1532 95.0101 1.10251C94.8103 0.937769 94.7104 0.738176 94.7104 0.503734C94.7104 0.326318 94.7521 0.202761 94.8353 0.133062C94.9241 0.0570265 95.0739 0.0190088 95.2847 0.0190088H99.5462C99.807 0.0190088 99.9902 0.0633628 100.096 0.152071C100.207 0.234442 100.262 0.380176 100.262 0.589274C100.262 0.855397 100.123 1.05816 99.8459 1.19756C99.7738 1.23557 99.721 1.26409 99.6877 1.2831C99.5546 1.35913 99.4658 1.44784 99.4214 1.54922C99.3826 1.64426 99.3631 1.84069 99.3631 2.13849V11.795C99.3631 11.9977 99.3826 12.1466 99.4214 12.2417C99.4658 12.3304 99.5546 12.4159 99.6877 12.4983C99.721 12.5173 99.7738 12.5458 99.8459 12.5838C100.123 12.7232 100.262 12.9292 100.262 13.2016C100.262 13.4044 100.207 13.5501 100.096 13.6388C99.9902 13.7212 99.807 13.7624 99.5462 13.7624H95.2847C95.0739 13.7624 94.9241 13.7275 94.8353 13.6578C94.7521 13.5818 94.7104 13.4551 94.7104 13.2777C94.7104 13.0496 94.8103 12.85 95.0101 12.6789C95.0711 12.6282 95.1183 12.587 95.1516 12.5553C95.2182 12.4856 95.2653 12.4033 95.2931 12.3082C95.3208 12.2068 95.3347 12.0548 95.3347 11.852V7.3184H93.9946V6.0353ZM89.267 13.7624C89.0062 13.7624 88.8203 13.7212 88.7094 13.6388C88.6039 13.5501 88.5512 13.4044 88.5512 13.2016C88.5512 12.9292 88.6955 12.7201 88.984 12.5743C89.0506 12.5427 89.1006 12.5173 89.1339 12.4983C89.2615 12.4223 89.3475 12.3367 89.3919 12.2417C89.4363 12.1403 89.4585 11.9407 89.4585 11.6429V2.13849C89.4585 1.84069 89.4363 1.64426 89.3919 1.54922C89.3475 1.44784 89.2615 1.35913 89.1339 1.2831C89.1006 1.26409 89.0506 1.23874 88.984 1.20706C88.6955 1.06133 88.5512 0.855397 88.5512 0.589274C88.5512 0.380176 88.6039 0.234442 88.7094 0.152071C88.8203 0.0633628 89.0062 0.0190088 89.267 0.0190088H93.5285C93.7449 0.0190088 93.8948 0.0570265 93.978 0.133062C94.0668 0.202761 94.1112 0.326318 94.1112 0.503734C94.1112 0.738176 94.0085 0.937769 93.8032 1.10251C93.7366 1.15954 93.6922 1.20072 93.67 1.22607C93.5979 1.29577 93.548 1.38131 93.5202 1.48269C93.4925 1.57773 93.4786 1.72663 93.4786 1.9294V11.795C93.4786 12.2005 93.584 12.5015 93.7949 12.6979C94.0057 12.8943 94.1112 13.0876 94.1112 13.2777C94.1112 13.4551 94.0668 13.5818 93.978 13.6578C93.8948 13.7275 93.7449 13.7624 93.5285 13.7624H89.267Z" fill="#FCD130"/>
<path d="M102.243 9.97013V2.13849C102.243 1.84069 102.221 1.64426 102.176 1.54922C102.138 1.44784 102.052 1.35913 101.918 1.2831C101.885 1.26409 101.835 1.23874 101.769 1.20706C101.474 1.06133 101.327 0.855397 101.327 0.589274C101.327 0.386513 101.383 0.240778 101.494 0.152071C101.605 0.0633628 101.794 0.0190088 102.06 0.0190088H106.521C106.86 0.0190088 107.09 0.0601946 107.212 0.142566C107.334 0.224938 107.395 0.364336 107.395 0.56076C107.395 0.852229 107.201 1.08033 106.812 1.24508C106.751 1.27042 106.707 1.28943 106.679 1.3021C106.524 1.3718 106.421 1.44784 106.371 1.53021C106.327 1.61258 106.305 1.78366 106.305 2.04345V10.7305C106.305 11.4021 106.38 11.8583 106.529 12.0991C106.685 12.3336 106.965 12.473 107.37 12.5173L107.378 13.9525C107.201 13.9588 106.982 13.9683 106.721 13.981C106.46 13.9937 106.305 14 106.255 14C104.873 14 103.858 13.6768 103.208 13.0305C102.565 12.3779 102.243 11.3578 102.243 9.97013ZM107.886 13.8955V12.5553C108.641 12.4349 109.179 12.1276 109.501 11.6334C109.823 11.1392 109.984 10.3693 109.984 9.32383V3.13646C109.984 2.78796 109.939 2.48699 109.85 2.23354C109.767 1.97375 109.642 1.76148 109.476 1.59674C109.382 1.50803 109.243 1.40665 109.06 1.2926C108.743 1.09618 108.585 0.880742 108.585 0.6463C108.585 0.42453 108.641 0.266124 108.752 0.171079C108.863 0.069699 109.04 0.0190088 109.284 0.0190088H111.823C112.067 0.0190088 112.245 0.069699 112.356 0.171079C112.467 0.266124 112.522 0.42453 112.522 0.6463C112.522 0.874406 112.383 1.07717 112.106 1.25458C111.834 1.432 111.643 1.58407 111.532 1.71079C111.387 1.88821 111.282 2.10364 111.215 2.35709C111.154 2.61055 111.124 3.03824 111.124 3.64019V8.8391C111.124 10.4865 110.874 11.6968 110.375 12.4698C109.881 13.2365 109.051 13.7117 107.886 13.8955Z" fill="#FCD130"/>
<path d="M118.665 13.7624V12.5933C119.131 12.5807 119.456 12.4476 119.639 12.1942C119.827 11.9344 119.922 11.4908 119.922 10.8635V8.85811C119.922 8.23082 119.827 7.79045 119.639 7.537C119.45 7.28355 119.125 7.15365 118.665 7.14732V5.97828C119.125 5.9656 119.45 5.82937 119.639 5.56959C119.827 5.3098 119.922 4.86943 119.922 4.24847V2.91785C119.922 2.29056 119.827 1.85019 119.639 1.59674C119.456 1.33695 119.131 1.20072 118.665 1.18805V0.0190088C118.754 0.0126725 118.848 0.00950441 118.948 0.00950441C119.048 0.00316814 119.192 0 119.381 0C120.94 0 122.069 0.275628 122.768 0.826884C123.473 1.3718 123.825 2.24621 123.825 3.4501C123.825 4.38787 123.539 5.13238 122.968 5.68364C122.402 6.23489 121.608 6.5327 120.587 6.57705C121.692 6.66576 122.535 7.01109 123.118 7.61303C123.706 8.21498 124 9.0387 124 10.0842C124 11.3451 123.614 12.2765 122.843 12.8785C122.077 13.4804 120.893 13.7814 119.289 13.7814C119.222 13.7814 119.12 13.7782 118.981 13.7719C118.842 13.7656 118.737 13.7624 118.665 13.7624ZM113.937 13.7624C113.676 13.7624 113.49 13.7212 113.38 13.6388C113.274 13.5501 113.221 13.4044 113.221 13.2016C113.221 12.9292 113.366 12.7201 113.654 12.5743C113.721 12.5427 113.771 12.5173 113.804 12.4983C113.932 12.4223 114.018 12.3367 114.062 12.2417C114.106 12.1403 114.129 11.9407 114.129 11.6429V2.13849C114.129 1.84069 114.106 1.64426 114.062 1.54922C114.018 1.44784 113.932 1.35913 113.804 1.2831C113.771 1.26409 113.721 1.23874 113.654 1.20706C113.366 1.06133 113.221 0.855397 113.221 0.589274C113.221 0.380176 113.274 0.234442 113.38 0.152071C113.49 0.0633628 113.676 0.0190088 113.937 0.0190088H118.149V13.7624H113.937Z" fill="#FCD130"/>
</svg>
