<svg width="264" height="26" viewBox="0 0 264 26" fill="none" xmlns="http://www.w3.org/2000/svg">
<path d="M16.8522 0.0353021H25.8188C26.374 0.0353021 26.7639 0.117674 26.9883 0.282417C27.2246 0.435393 27.3427 0.706042 27.3427 1.09437C27.3427 1.58859 27.0356 1.96515 26.4213 2.22403C26.2559 2.29464 26.1377 2.34759 26.0669 2.38289C25.807 2.50057 25.6297 2.64177 25.5352 2.80652C25.4525 2.97126 25.4112 3.28898 25.4112 3.75967V21.905C25.4112 22.305 25.4525 22.5875 25.5352 22.7522C25.6297 22.917 25.807 23.0699 26.0669 23.2111C26.1377 23.2464 26.2559 23.2994 26.4213 23.37C27.0356 23.6289 27.3427 24.0113 27.3427 24.5173C27.3427 24.8939 27.2246 25.1645 26.9883 25.3293C26.7639 25.4822 26.374 25.5587 25.8188 25.5587H16.4446C15.8776 25.5587 15.4759 25.4764 15.2396 25.3116C15.0034 25.1469 14.8852 24.8821 14.8852 24.5173C14.8852 24.0113 15.1924 23.6289 15.8067 23.37C15.9721 23.2994 16.0902 23.2464 16.1611 23.2111C16.4328 23.0699 16.6159 22.9111 16.7104 22.7346C16.8049 22.5463 16.8522 22.1756 16.8522 21.6225V0.0353021ZM11.3234 25.5587H10.207L3.04793 4.43041C3.01249 4.32451 2.95932 4.16565 2.88844 3.95384C2.58129 2.98891 2.17962 2.39466 1.68345 2.17108C1.52987 2.10048 1.2995 2.02987 0.992348 1.95927C0.330783 1.80629 0 1.4768 0 0.970808C0 0.641322 0.100416 0.405974 0.301248 0.264766C0.513894 0.11179 0.874211 0.0353021 1.3822 0.0353021H10.3842L13.8043 10.1317L15.7181 3.68907V10.8024L11.3234 25.5587ZM2.97704 7.27223L5.05034 13.3795V19.628C5.05034 20.2987 5.12122 20.8635 5.26299 21.3225C5.40475 21.7814 5.62331 22.158 5.91865 22.4521C6.14311 22.6757 6.55068 22.9523 7.14136 23.2817C7.73204 23.5995 8.02739 23.9701 8.02739 24.3938C8.02739 24.7938 7.90334 25.088 7.65526 25.2763C7.41898 25.4646 7.03504 25.5587 6.50342 25.5587H1.52396C1.00416 25.5587 0.620218 25.4646 0.372131 25.2763C0.124044 25.088 0 24.7938 0 24.3938C0 23.9701 0.301248 23.5995 0.903745 23.2817C1.50624 22.9523 1.91972 22.6757 2.14418 22.4521C2.45134 22.1462 2.66398 21.7696 2.78212 21.3225C2.91207 20.8753 2.97704 20.0457 2.97704 18.8337V7.27223Z" fill="white"/>
<path d="M40.3673 0.0353021C40.9225 0.0353021 41.3183 0.117674 41.5546 0.282417C41.8027 0.44716 41.9267 0.717809 41.9267 1.09437C41.9267 1.58859 41.6195 1.96515 41.0052 2.22403C40.8398 2.29464 40.7217 2.34759 40.6508 2.38289C40.3791 2.5241 40.196 2.68884 40.1015 2.87712C40.007 3.05363 39.9597 3.41842 39.9597 3.97149V21.6931C39.9597 22.1756 39.9952 22.4992 40.0661 22.664C40.1369 22.8287 40.2669 22.9699 40.4559 23.0876C40.5504 23.1464 40.6981 23.217 40.8989 23.2994C41.5841 23.5936 41.9267 23.9995 41.9267 24.5173C41.9267 24.8821 41.8027 25.1469 41.5546 25.3116C41.3183 25.4764 40.9225 25.5587 40.3673 25.5587H30.9932C30.4379 25.5587 30.0422 25.4822 29.8059 25.3293C29.5814 25.1645 29.4692 24.8939 29.4692 24.5173C29.4692 24.0113 29.7763 23.623 30.3907 23.3523C30.5324 23.2935 30.6387 23.2464 30.7096 23.2111C30.9813 23.0699 31.1645 22.9111 31.259 22.7346C31.3535 22.5463 31.4007 22.1756 31.4007 21.6225V3.97149C31.4007 3.41842 31.3535 3.05363 31.259 2.87712C31.1645 2.68884 30.9813 2.5241 30.7096 2.38289C30.6387 2.34759 30.5324 2.30052 30.3907 2.24168C29.7763 1.97103 29.4692 1.58859 29.4692 1.09437C29.4692 0.706042 29.5814 0.435393 29.8059 0.282417C30.0422 0.117674 30.4379 0.0353021 30.9932 0.0353021H40.3673Z" fill="white"/>
<path d="M55.5183 25.5587V23.2111C56.5461 23.1523 57.4499 22.864 58.2296 22.3462C59.0093 21.8167 59.6295 21.0812 60.0902 20.1399C60.3147 19.6574 60.545 19.0161 60.7813 18.2159C61.1003 17.1568 61.496 16.6273 61.9686 16.6273C62.4175 16.6273 62.7247 16.7979 62.8901 17.1392C63.0554 17.4687 63.1381 18.263 63.1381 19.5221V25.5587H55.5183ZM45.4531 25.5587C44.8978 25.5587 44.5021 25.4822 44.2658 25.3293C44.0413 25.1645 43.9291 24.8939 43.9291 24.5173C43.9291 24.0113 44.2363 23.623 44.8506 23.3523C44.9923 23.2935 45.0987 23.2464 45.1696 23.2111C45.4413 23.0699 45.6244 22.9111 45.7189 22.7346C45.8134 22.5463 45.8607 22.1756 45.8607 21.6225V3.97149C45.8607 3.41842 45.8134 3.05363 45.7189 2.87712C45.6244 2.68884 45.4413 2.5241 45.1696 2.38289C45.0987 2.34759 44.9923 2.30052 44.8506 2.24168C44.2363 1.97103 43.9291 1.58859 43.9291 1.09437C43.9291 0.706042 44.0413 0.435393 44.2658 0.282417C44.5021 0.117674 44.8978 0.0353021 45.4531 0.0353021H54.8272C55.3825 0.0353021 55.7723 0.117674 55.9968 0.282417C56.2331 0.435393 56.3512 0.706042 56.3512 1.09437C56.3512 1.58859 56.044 1.97103 55.4297 2.24168C55.288 2.30052 55.1816 2.34759 55.1108 2.38289C54.839 2.5241 54.6559 2.68884 54.5614 2.87712C54.4669 3.05363 54.4197 3.41842 54.4197 3.97149V25.5587H45.4531Z" fill="white"/>
<path d="M77.1905 0.0353021C77.7457 0.0353021 78.1415 0.117674 78.3778 0.282417C78.6259 0.44716 78.7499 0.717809 78.7499 1.09437C78.7499 1.58859 78.4427 1.96515 77.8284 2.22403C77.663 2.29464 77.5449 2.34759 77.474 2.38289C77.2023 2.5241 77.0192 2.68884 76.9247 2.87712C76.8302 3.05363 76.7829 3.41842 76.7829 3.97149V21.6931C76.7829 22.1756 76.8184 22.4992 76.8893 22.664C76.9601 22.8287 77.0901 22.9699 77.2791 23.0876C77.3736 23.1464 77.5213 23.217 77.7221 23.2994C78.4073 23.5936 78.7499 23.9995 78.7499 24.5173C78.7499 24.8821 78.6259 25.1469 78.3778 25.3116C78.1415 25.4764 77.7457 25.5587 77.1905 25.5587H67.8164C67.2611 25.5587 66.8654 25.4822 66.6291 25.3293C66.4046 25.1645 66.2924 24.8939 66.2924 24.5173C66.2924 24.0113 66.5995 23.623 67.2139 23.3523C67.3556 23.2935 67.4619 23.2464 67.5328 23.2111C67.8045 23.0699 67.9876 22.9111 68.0822 22.7346C68.1767 22.5463 68.2239 22.1756 68.2239 21.6225V3.97149C68.2239 3.41842 68.1767 3.05363 68.0822 2.87712C67.9876 2.68884 67.8045 2.5241 67.5328 2.38289C67.4619 2.34759 67.3556 2.30052 67.2139 2.24168C66.5995 1.97103 66.2924 1.58859 66.2924 1.09437C66.2924 0.706042 66.4046 0.435393 66.6291 0.282417C66.8654 0.117674 67.2611 0.0353021 67.8164 0.0353021H77.1905Z" fill="white"/>
<path d="M96.1869 0.0353021V22.0462C96.1869 22.611 96.5413 23.0287 97.2501 23.2994C97.2619 23.2994 97.2796 23.3053 97.3033 23.317C97.764 23.47 98.0712 23.6406 98.2247 23.8289C98.3901 24.0054 98.4728 24.2467 98.4728 24.5526C98.4728 24.9292 98.3429 25.1939 98.083 25.3469C97.8349 25.4881 97.3564 25.5587 96.6476 25.5587H87.114C86.4052 25.5587 85.9208 25.4881 85.6609 25.3469C85.4128 25.1939 85.2888 24.9292 85.2888 24.5526C85.2888 24.0113 85.7022 23.5818 86.5292 23.2641C86.6355 23.2288 86.7182 23.1994 86.7773 23.1758C87.1081 23.0464 87.3207 22.9111 87.4152 22.7699C87.5216 22.6169 87.5747 22.2933 87.5747 21.7991V0.0353021H96.1869ZM102.424 0.0353021V7.66056C102.424 8.06065 102.306 8.38425 102.07 8.63136C101.834 8.87848 101.527 9.00204 101.149 9.00204C100.393 9.00204 99.9318 8.43132 99.7664 7.28989C99.7192 6.94863 99.6719 6.68387 99.6246 6.49559C99.3766 5.40122 99.0517 4.51279 98.65 3.83028C98.2602 3.14777 97.7994 2.68884 97.2678 2.4535V0.0353021H102.424ZM81.0181 0.0353021H86.1571V2.4535C85.6373 2.68884 85.1765 3.14777 84.7749 3.83028C84.385 4.51279 84.0601 5.40711 83.8002 6.51324C83.7648 6.68975 83.7235 6.94863 83.6762 7.28989C83.499 8.43132 83.0324 9.00204 82.2763 9.00204C81.8274 9.00204 81.5025 8.86671 81.3017 8.59606C81.1126 8.32541 81.0181 7.81942 81.0181 7.07807V0.0353021Z" fill="white"/>
<path d="M114.545 19.2043H109.211L109.938 16.592H113.925L110.363 2.17108L110.983 0.0353021H118.639L123.973 21.5696C124.008 21.699 124.049 21.8461 124.097 22.0109C124.144 22.1756 124.168 22.2756 124.168 22.3109C124.168 22.664 124.492 22.9934 125.142 23.2994C125.792 23.6053 126.117 23.9878 126.117 24.4467C126.117 24.8703 125.975 25.1645 125.692 25.3293C125.42 25.4822 124.87 25.5587 124.044 25.5587H115.768C115.024 25.5587 114.498 25.4705 114.191 25.294C113.896 25.1057 113.748 24.7938 113.748 24.3585C113.748 23.9584 114.002 23.6112 114.51 23.317C115.018 23.0229 115.272 22.6875 115.272 22.3109C115.272 22.2639 115.26 22.1874 115.236 22.0815C115.225 21.9638 115.201 21.8226 115.166 21.6578L114.545 19.2043ZM110.877 8.52546L107.723 20.3164C107.664 20.5046 107.617 20.6929 107.581 20.8812C107.558 21.0577 107.546 21.2283 107.546 21.3931C107.546 21.7814 107.634 22.1168 107.812 22.3992C107.989 22.6816 108.243 22.8993 108.574 23.0523C108.703 23.1229 108.863 23.1994 109.052 23.2817C109.666 23.5524 109.973 23.9407 109.973 24.4467C109.973 24.8233 109.832 25.1057 109.548 25.294C109.265 25.4705 108.81 25.5587 108.184 25.5587H103.736C103.086 25.5587 102.637 25.4822 102.389 25.3293C102.141 25.1645 102.017 24.8821 102.017 24.482C102.017 23.9407 102.383 23.5524 103.116 23.317C103.411 23.2229 103.624 23.1405 103.754 23.0699C104.167 22.8346 104.504 22.5169 104.764 22.1168C105.023 21.7049 105.26 21.1165 105.472 20.3517L109.832 4.20095L110.877 8.52546Z" fill="white"/>
<path d="M139.106 25.5587H129.732C129.177 25.5587 128.781 25.4822 128.545 25.3293C128.32 25.1645 128.208 24.8939 128.208 24.5173C128.208 24.0113 128.515 23.623 129.129 23.3523C129.271 23.2935 129.377 23.2464 129.448 23.2111C129.72 23.0699 129.903 22.9111 129.998 22.7346C130.092 22.5463 130.139 22.1756 130.139 21.6225V3.97149C130.139 3.41842 130.092 3.05363 129.998 2.87712C129.903 2.68884 129.72 2.5241 129.448 2.38289C129.377 2.34759 129.271 2.30052 129.129 2.24168C128.515 1.97103 128.208 1.58859 128.208 1.09437C128.208 0.706042 128.32 0.435393 128.545 0.282417C128.781 0.117674 129.177 0.0353021 129.732 0.0353021H138.698V21.905C138.698 22.2815 138.746 22.558 138.84 22.7346C138.935 22.8993 139.118 23.0582 139.389 23.2111C139.46 23.2464 139.567 23.2935 139.708 23.3523C140.323 23.623 140.63 24.0113 140.63 24.5173C140.63 24.8939 140.512 25.1645 140.275 25.3293C140.051 25.4822 139.661 25.5587 139.106 25.5587ZM139.797 11.9321C140.6 11.8733 141.179 11.5967 141.534 11.1025C141.9 10.5965 142.083 9.80222 142.083 8.71962V5.41887C142.083 4.33628 141.9 3.54786 141.534 3.05363C141.179 2.54764 140.6 2.26522 139.797 2.20638V0.0353021C139.962 0.0235347 140.134 0.0176511 140.311 0.0176511C140.5 0.00588368 140.772 0 141.126 0C144.292 0 146.625 0.535415 148.126 1.60625C149.638 2.66531 150.394 4.31274 150.394 6.54854C150.394 8.34895 149.874 9.76103 148.834 10.7848C147.795 11.8086 146.218 12.4675 144.103 12.7617C146.241 12.9618 147.836 13.4678 148.888 14.2797C149.939 15.0917 150.465 16.2272 150.465 17.6864V20.9341C150.465 21.1695 150.494 21.346 150.553 21.4637C150.612 21.5696 150.701 21.6225 150.819 21.6225C150.937 21.6225 151.132 21.4519 151.404 21.1107C151.687 20.7694 151.977 20.5988 152.272 20.5988C152.568 20.5988 152.833 20.7165 153.07 20.9518C153.318 21.1871 153.442 21.4578 153.442 21.7637C153.442 22.7169 152.887 23.6289 151.776 24.4997C150.677 25.3704 149.342 25.8058 147.771 25.8058C145.881 25.8058 144.481 25.2998 143.571 24.2878C142.674 23.2641 142.225 21.6873 142.225 19.5574V17.351C142.225 16.3272 142.036 15.5682 141.658 15.074C141.291 14.568 140.671 14.2444 139.797 14.1032V11.9321Z" fill="white"/>
<path d="M159.254 15.2152L154.31 3.68907C154.286 3.63023 154.251 3.55375 154.204 3.45961C153.956 2.85947 153.542 2.42996 152.963 2.17108C152.668 2.04164 152.467 1.90631 152.361 1.76511C152.255 1.61213 152.201 1.41208 152.201 1.16497C152.201 0.729577 152.337 0.435393 152.609 0.282417C152.892 0.117674 153.448 0.0353021 154.275 0.0353021H162.55C163.306 0.0353021 163.832 0.129441 164.127 0.317719C164.434 0.505997 164.588 0.823716 164.588 1.27088C164.588 1.6239 164.393 1.92396 164.003 2.17108C163.613 2.40643 163.418 2.63589 163.418 2.85947C163.418 2.98891 163.436 3.136 163.472 3.30075C163.519 3.46549 163.59 3.64788 163.684 3.84793L167.919 13.5207V22.0462C167.919 22.3874 167.99 22.6463 168.132 22.8228C168.274 22.9876 168.522 23.117 168.876 23.2111C169.42 23.3406 169.774 23.4994 169.94 23.6877C170.117 23.876 170.205 24.1643 170.205 24.5526C170.205 24.9292 170.075 25.1939 169.816 25.3469C169.567 25.4881 169.095 25.5587 168.398 25.5587H158.776C158.067 25.5587 157.588 25.4881 157.34 25.3469C157.092 25.1939 156.968 24.9292 156.968 24.5526C156.968 23.9289 157.34 23.5053 158.085 23.2817C158.25 23.2347 158.368 23.1994 158.439 23.1758C158.758 23.0699 158.971 22.9346 159.077 22.7699C159.195 22.6051 159.254 22.2697 159.254 21.7637V15.2152ZM168.54 12.2145L167.53 9.97285L169.55 5.27766C169.621 5.10115 169.674 4.91876 169.709 4.73048C169.756 4.53044 169.78 4.34216 169.78 4.16565C169.78 3.78909 169.686 3.46549 169.497 3.19484C169.319 2.91242 169.059 2.68884 168.717 2.5241C168.622 2.4888 168.487 2.42996 168.309 2.34759C167.66 2.07694 167.335 1.68273 167.335 1.16497C167.335 0.764879 167.471 0.476578 167.742 0.300068C168.026 0.123557 168.475 0.0353021 169.089 0.0353021H173.59C174.228 0.0353021 174.671 0.117674 174.919 0.282417C175.167 0.435393 175.291 0.717809 175.291 1.12967C175.291 1.6592 174.925 2.04164 174.193 2.27699C173.897 2.37112 173.685 2.4535 173.555 2.5241C173.153 2.75945 172.793 3.08893 172.474 3.51256C172.155 3.93618 171.836 4.52455 171.517 5.27766L168.54 12.2145Z" fill="white"/>
<path d="M200.118 11.2084H202.971V3.58316C202.971 3.20661 202.941 2.93007 202.882 2.75356C202.823 2.56529 202.723 2.40643 202.581 2.27699C202.51 2.21815 202.409 2.14166 202.28 2.04752C201.854 1.74157 201.642 1.3709 201.642 0.935506C201.642 0.606019 201.73 0.376556 201.907 0.247115C202.096 0.105906 202.415 0.0353021 202.864 0.0353021H211.937C212.492 0.0353021 212.882 0.117674 213.107 0.282417C213.343 0.435393 213.461 0.706042 213.461 1.09437C213.461 1.58859 213.166 1.96515 212.575 2.22403C212.422 2.29464 212.309 2.34759 212.238 2.38289C211.955 2.5241 211.766 2.68884 211.671 2.87712C211.589 3.05363 211.547 3.41842 211.547 3.97149V21.905C211.547 22.2815 211.589 22.558 211.671 22.7346C211.766 22.8993 211.955 23.0582 212.238 23.2111C212.309 23.2464 212.422 23.2994 212.575 23.37C213.166 23.6289 213.461 24.0113 213.461 24.5173C213.461 24.8939 213.343 25.1645 213.107 25.3293C212.882 25.4822 212.492 25.5587 211.937 25.5587H202.864C202.415 25.5587 202.096 25.494 201.907 25.3646C201.73 25.2234 201.642 24.988 201.642 24.6585C201.642 24.2349 201.854 23.8642 202.28 23.5465C202.409 23.4524 202.51 23.3759 202.581 23.317C202.723 23.1876 202.823 23.0346 202.882 22.8581C202.941 22.6698 202.971 22.3874 202.971 22.0109V13.5913H200.118V11.2084ZM190.052 25.5587C189.497 25.5587 189.101 25.4822 188.865 25.3293C188.641 25.1645 188.528 24.8939 188.528 24.5173C188.528 24.0113 188.836 23.623 189.45 23.3523C189.592 23.2935 189.698 23.2464 189.769 23.2111C190.041 23.0699 190.224 22.9111 190.318 22.7346C190.413 22.5463 190.46 22.1756 190.46 21.6225V3.97149C190.46 3.41842 190.413 3.05363 190.318 2.87712C190.224 2.68884 190.041 2.5241 189.769 2.38289C189.698 2.34759 189.592 2.30052 189.45 2.24168C188.836 1.97103 188.528 1.58859 188.528 1.09437C188.528 0.706042 188.641 0.435393 188.865 0.282417C189.101 0.117674 189.497 0.0353021 190.052 0.0353021H199.125C199.586 0.0353021 199.905 0.105906 200.082 0.247115C200.271 0.376556 200.366 0.606019 200.366 0.935506C200.366 1.3709 200.147 1.74157 199.71 2.04752C199.568 2.15343 199.474 2.22992 199.427 2.27699C199.273 2.40643 199.167 2.56529 199.108 2.75356C199.048 2.93007 199.019 3.20661 199.019 3.58316V21.905C199.019 22.6581 199.243 23.217 199.692 23.5818C200.141 23.9466 200.366 24.3055 200.366 24.6585C200.366 24.988 200.271 25.2234 200.082 25.3646C199.905 25.494 199.586 25.5587 199.125 25.5587H190.052Z" fill="#FCD130"/>
<path d="M217.679 18.516V3.97149C217.679 3.41842 217.631 3.05363 217.537 2.87712C217.454 2.68884 217.271 2.5241 216.988 2.38289C216.917 2.34759 216.81 2.30052 216.669 2.24168C216.042 1.97103 215.729 1.58859 215.729 1.09437C215.729 0.717809 215.848 0.44716 216.084 0.282417C216.32 0.117674 216.722 0.0353021 217.289 0.0353021H226.787C227.508 0.0353021 227.998 0.11179 228.258 0.264766C228.518 0.417742 228.648 0.676624 228.648 1.04141C228.648 1.58271 228.234 2.00634 227.407 2.31229C227.277 2.35936 227.183 2.39466 227.124 2.41819C226.793 2.54764 226.574 2.68884 226.468 2.84182C226.373 2.9948 226.326 3.31251 226.326 3.79498V19.928C226.326 21.1754 226.486 22.0226 226.805 22.4698C227.135 22.9052 227.732 23.1641 228.594 23.2464L228.612 25.9117C228.234 25.9235 227.767 25.9412 227.212 25.9647C226.657 25.9882 226.326 26 226.22 26C223.278 26 221.116 25.3999 219.734 24.1996C218.364 22.9876 217.679 21.093 217.679 18.516ZM229.693 25.8058V23.317C231.3 23.0935 232.446 22.5227 233.131 21.6049C233.816 20.687 234.159 19.2573 234.159 17.3157V5.82485C234.159 5.17764 234.064 4.61869 233.875 4.148C233.698 3.66554 233.432 3.27133 233.078 2.96538C232.877 2.80063 232.582 2.61236 232.192 2.40054C231.518 2.03575 231.182 1.63566 231.182 1.20027C231.182 0.788414 231.3 0.494229 231.536 0.317719C231.772 0.129441 232.15 0.0353021 232.67 0.0353021H238.075C238.595 0.0353021 238.973 0.129441 239.209 0.317719C239.445 0.494229 239.563 0.788414 239.563 1.20027C239.563 1.6239 239.268 2.00045 238.677 2.32994C238.099 2.65943 237.691 2.94184 237.455 3.17719C237.148 3.50668 236.923 3.90677 236.781 4.37746C236.651 4.84816 236.586 5.64245 236.586 6.76035V16.4155C236.586 19.475 236.055 21.7226 234.992 23.1582C233.94 24.582 232.174 25.4646 229.693 25.8058Z" fill="#FCD130"/>
<path d="M252.641 25.5587V23.3876C253.634 23.3641 254.325 23.117 254.714 22.6463C255.116 22.1638 255.317 21.3401 255.317 20.1752V16.4508C255.317 15.2858 255.116 14.468 254.714 13.9973C254.313 13.5266 253.622 13.2854 252.641 13.2736V11.1025C253.622 11.079 254.313 10.826 254.714 10.3435C255.116 9.86106 255.317 9.04322 255.317 7.89002V5.41887C255.317 4.2539 255.116 3.43607 254.714 2.96538C254.325 2.48291 253.634 2.22992 252.641 2.20638V0.0353021C252.83 0.0235347 253.031 0.0176511 253.244 0.0176511C253.456 0.00588368 253.763 0 254.165 0C257.485 0 259.889 0.511881 261.377 1.53564C262.878 2.54764 263.628 4.17153 263.628 6.40733C263.628 8.1489 263.019 9.53157 261.803 10.5553C260.598 11.5791 258.908 12.1322 256.735 12.2145C259.086 12.3793 260.881 13.0206 262.122 14.1385C263.374 15.2564 264 16.7862 264 18.7278C264 21.0695 263.179 22.7993 261.537 23.9172C259.907 25.0351 257.384 25.594 253.97 25.594C253.828 25.594 253.61 25.5881 253.315 25.5764C253.019 25.5646 252.795 25.5587 252.641 25.5587ZM242.576 25.5587C242.021 25.5587 241.625 25.4822 241.389 25.3293C241.164 25.1645 241.052 24.8939 241.052 24.5173C241.052 24.0113 241.359 23.623 241.973 23.3523C242.115 23.2935 242.222 23.2464 242.292 23.2111C242.564 23.0699 242.747 22.9111 242.842 22.7346C242.936 22.5463 242.983 22.1756 242.983 21.6225V3.97149C242.983 3.41842 242.936 3.05363 242.842 2.87712C242.747 2.68884 242.564 2.5241 242.292 2.38289C242.222 2.34759 242.115 2.30052 241.973 2.24168C241.359 1.97103 241.052 1.58859 241.052 1.09437C241.052 0.706042 241.164 0.435393 241.389 0.282417C241.625 0.117674 242.021 0.0353021 242.576 0.0353021H251.542V25.5587H242.576Z" fill="#FCD130"/>
</svg>
